<svg xmlns="http://www.w3.org/2000/svg" xml:lang="en" height="4747.071999999999pt" width="2395.8382000000006pt" viewBox="-93.26540000000034 -2.0 2395.8382000000006 4747.071999999999"><polygon points="28.349999999999994,40.5 28.671285767654854,40.497451085395966 28.992490653335867,40.489804983259496 29.313533795430775,40.4770636184559 29.634334373045427,40.45923019855565 29.954811626349958,40.43630921302683 30.274884876909695,40.40830643210496 30.594473547995467,40.37522890534039 30.913497184868415,40.3370849598236 31.23187547503402,40.29388419808888 31.549528268460335,40.24563749569698 31.866375597755336,40.19235699849721 32.1823376982983,40.134056119569806 32.4973350283201,40.07074953584926 32.81128828892744,40.002453184429484 33.12411844406589,39.92918425855172 33.43574674041685,39.850961203276206 33.74609472722321,39.76780371083882 34.05508427603895,39.67973271569356 34.36263760039756,39.586770389242496 34.668677275394366,39.48894013425414 34.97312625717778,39.38626657897204 35.27590790234479,39.27877557091464 35.5769459872354,39.16649417036841 35.87616472712163,39.04945064357546 36.17348879528585,38.92767445561777 36.46884334198392,38.80119626299941 36.762154013288196,38.670047905928996 37.05334696980572,38.53426240030407 37.342348905266924,38.39387392939955 37.629087064980055,38.2489178352622 37.91348926414682,38.09943060981354 38.19548390603449,37.94544988566314 38.475,37.787014426634876 38.75196717936147,37.624164118008274 39.02631571911267,37.45693995647766 39.29797655347585,37.28538403983141 39.56688129328872,37.109539556354115 39.832962243221104,36.92945077395411 40.09615241881676,36.74516302901929 40.35638556335647,36.55672271500393 40.613596164537746,36.364177270749344 40.867719470967245,36.16757516854145 41.11869150846158,35.96696590190807 41.366449096152415,35.762399973159305 41.61092986239202,35.55392888067372 41.8520722604549,35.34160510593403 42.08981558403192,35.12548210031505 42.32409998251277,34.90561427162766 42.554866476053,34.68205697042197 42.78205697042197,34.454866476053006 43.005614271627664,34.22409998251277 43.22548210031505,33.98981558403192 43.44160510593403,33.75207226045491 43.653928880673725,33.51092986239202 43.862399973159306,33.26644909615242 44.06696590190807,33.01869150846158 44.26757516854145,32.76771947096726 44.464177270749346,32.51359616453775 44.65672271500393,32.25638556335647 44.84516302901929,31.996152418816763 45.02945077395411,31.732962243221106 45.209539556354116,31.46688129328873 45.385384039831415,31.19797655347585 45.55693995647766,30.926315719112672 45.72416411800828,30.651967179361478 45.88701442663488,30.374999999999996 46.045449885663146,30.095483906034488 46.19943060981354,29.813489264146824 46.34891783526219,29.52908706498006 46.493873929399555,29.242348905266923 46.63426240030408,28.95334696980572 46.770047905929,28.6621540132882 46.901196262999406,28.368843341983922 47.02767445561777,28.07348879528585 47.14945064357547,27.776164727121632 47.266494170368404,27.476945987235403 47.37877557091464,27.175907902344793 47.486266578972035,26.873126257177784 47.58894013425414,26.568677275394364 47.68677038924249,26.262637600397564 47.77973271569357,25.955084276038946 47.86780371083883,25.646094727223204 47.950961203276215,25.33574674041685 48.029184258551716,25.024118444065902 48.10245318442949,24.711288288927445 48.17074953584927,24.39733502832011 48.234056119569814,24.082337698298307 48.29235699849721,23.76637559775534 48.345637495696984,23.44952826846033 48.39388419808888,23.131875475034022 48.4370849598236,22.813497184868424 48.475228905340394,22.494473547995476 48.508306432104966,22.174884876909697 48.53630921302683,21.854811626349964 48.55923019855565,21.53433437304543 48.57706361845591,21.213533795430777 48.5898049832595,20.892490653335866 48.59745108539596,20.571285767654857 48.599999999999994,20.25 48.599999999999994,20.250000000000004 48.59745108539596,19.928714232345143 48.5898049832595,19.60750934666413 48.5770636184559,19.286466204569223 48.55923019855565,18.96566562695457 48.53630921302683,18.645188373650036 48.50830643210496,18.325115123090303 48.475228905340394,18.00552645200453 48.4370849598236,17.686502815131583 48.39388419808888,17.368124524965978 48.34563749569698,17.050471731539666 48.292356998497205,16.733624402244665 48.23405611956981,16.417662301701696 48.17074953584926,16.102664971679893 48.102453184429486,15.788711711072555 48.02918425855171,15.475881555934102 47.95096120327621,15.164253259583148 47.86780371083882,14.853905272776796 47.77973271569356,14.54491572396105 47.68677038924248,14.237362399602437 47.58894013425414,13.93132272460564 47.48626657897203,13.626873742822214 47.37877557091464,13.324092097655212 47.266494170368404,13.023054012764598 47.14945064357546,12.72383527287837 47.02767445561777,12.426511204714147 46.901196262999406,12.131156658016074 46.770047905929,11.837845986711802 46.634262400304074,11.546653030194278 46.49387392939955,11.257651094733077 46.34891783526219,10.970912935019943 46.19943060981353,10.686510735853178 46.04544988566314,10.404516093965512 45.88701442663487,10.125000000000004 45.724164118008275,9.848032820638526 45.556939956477656,9.573684280887328 45.385384039831415,9.302023446524153 45.20953955635411,9.03311870671127 45.02945077395411,8.767037756778896 44.84516302901929,8.50384758118324 44.65672271500393,8.243614436643535 44.464177270749346,7.986403835462252 44.26757516854145,7.732280529032749 44.06696590190807,7.481308491538423 43.8623999731593,7.233550903847584 43.653928880673725,6.989070137607979 43.44160510593403,6.747927739545099 43.22548210031505,6.510184415968076 43.005614271627664,6.275900017487235 42.78205697042197,6.0451335239469985 42.554866476053,5.817943029578029 42.32409998251277,5.594385728372332 42.08981558403192,5.374517899684953 41.8520722604549,5.158394894065972 41.61092986239202,4.946071119326274 41.366449096152415,4.737600026840699 41.11869150846158,4.533034098091928 40.86771947096725,4.332424831458556 40.61359616453774,4.135822729250653 40.35638556335647,3.9432772849960687 40.09615241881676,3.754836970980704 39.832962243221104,3.5705492260458884 39.56688129328872,3.3904604436458814 39.29797655347585,3.214615960168585 39.02631571911267,3.0430600435223383 38.75196717936147,2.8758358819917187 38.474999999999994,2.712985573365119 38.19548390603448,2.55455011433686 37.91348926414682,2.4005693901864675 37.629087064980055,2.251082164737804 37.34234890526692,2.106126070600451 37.05334696980572,1.9657375996959239 36.762154013288196,1.8299520940710068 36.46884334198392,1.698803737000593 36.17348879528585,1.5723255443822304 35.876164727121626,1.4505493564245322 35.5769459872354,1.3335058296315925 35.27590790234479,1.2212244290853598 34.97312625717778,1.1137334210279677 34.668677275394366,1.0110598657458572 34.36263760039756,0.9132296107575081 34.05508427603894,0.8202672843064331 33.7460947272232,0.7321962891611767 33.43574674041685,0.6490387967237891 33.12411844406589,0.5708157414482865 32.81128828892744,0.49754681557051045 32.49733502832011,0.42925046415073537 32.182337698298305,0.3659438804301932 31.866375597755336,0.3076430015027925 31.549528268460328,0.25436250430301743 31.23187547503402,0.20611580191111809 30.91349718486842,0.16291504017639794 30.59447354799547,0.1247710946596094 30.27488487690969,0.09169356789503977 29.954811626349958,0.0636907869731694 29.63433437304543,0.04076980144434419 29.313533795430775,0.0229363815440919 28.992490653335864,0.010195016740507023 28.671285767654854,0.0025489146040348133 28.349999999999994,3.597122599785507e-15 -28.34999999999999,3.597122599785507e-15 -28.671285767654854,0.0025489146040348133 -28.992490653335867,0.010195016740503425 -29.313533795430775,0.0229363815440919 -29.634334373045427,0.04076980144434419 -29.954811626349954,0.0636907869731694 -30.27488487690969,0.09169356789503977 -30.594473547995467,0.1247710946596094 -30.913497184868415,0.16291504017639794 -31.231875475034016,0.20611580191111448 -31.54952826846033,0.25436250430301743 -31.866375597755333,0.30764300150278895 -32.1823376982983,0.3659438804301932 -32.4973350283201,0.42925046415073176 -32.81128828892744,0.49754681557051045 -33.12411844406589,0.5708157414482828 -33.435746740416846,0.6490387967237891 -33.7460947272232,0.7321962891611767 -34.05508427603894,0.8202672843064296 -34.362637600397555,0.9132296107575044 -34.66867727539435,1.0110598657458572 -34.973126257177775,1.1137334210279641 -35.27590790234479,1.221224429085356 -35.5769459872354,1.3335058296315925 -35.87616472712163,1.4505493564245322 -36.17348879528585,1.5723255443822304 -36.46884334198392,1.698803737000593 -36.762154013288196,1.8299520940710068 -37.053346969805716,1.9657375996959203 -37.34234890526691,2.1061260706004474 -37.629087064980055,2.251082164737804 -37.91348926414682,2.4005693901864675 -38.19548390603449,2.5545501143368563 -38.475,2.712985573365119 -38.75196717936147,2.875835881991715 -39.02631571911267,3.043060043522331 -39.29797655347584,3.2146159601685778 -39.56688129328873,3.3904604436458814 -39.8329622432211,3.570549226045885 -40.09615241881676,3.754836970980704 -40.35638556335647,3.943277284996065 -40.613596164537746,4.135822729250651 -40.867719470967245,4.332424831458554 -41.11869150846157,4.533034098091925 -41.366449096152415,4.737600026840692 -41.61092986239201,4.946071119326267 -41.8520722604549,5.158394894065968 -42.08981558403192,5.374517899684951 -42.32409998251277,5.594385728372329 -42.554866476053,5.817943029578027 -42.78205697042196,6.045133523946993 -43.005614271627664,6.275900017487231 -43.22548210031504,6.51018441596807 -43.44160510593403,6.747927739545099 -43.653928880673725,6.989070137607977 -43.862399973159306,7.233550903847578 -44.06696590190807,7.481308491538419 -44.26757516854144,7.732280529032742 -44.46417727074934,7.986403835462247 -44.65672271500393,8.243614436643528 -44.8451630290193,8.503847581183239 -45.0294507739541,8.767037756778887 -45.209539556354116,9.033118706711269 -45.385384039831415,9.30202344652415 -45.55693995647766,9.573684280887322 -45.724164118008275,9.848032820638519 -45.88701442663488,10.124999999999996 -46.045449885663146,10.404516093965512 -46.199430609813525,10.686510735853169 -46.34891783526219,10.97091293501994 -46.49387392939955,11.257651094733074 -46.634262400304074,11.546653030194273 -46.770047905929,11.837845986711796 -46.901196262999406,12.131156658016069 -47.02767445561777,12.426511204714147 -47.14945064357546,12.723835272878363 -47.266494170368404,13.023054012764597 -47.37877557091464,13.3240920976552 -47.486266578972035,13.62687374282221 -47.58894013425414,13.931322724605634 -47.68677038924249,14.23736239960243 -47.77973271569357,14.54491572396105 -47.86780371083882,14.853905272776785 -47.950961203276215,15.164253259583147 -48.029184258551716,15.47588155593409 -48.10245318442949,15.788711711072551 -48.17074953584927,16.102664971679886 -48.23405611956981,16.417662301701693 -48.29235699849721,16.733624402244654 -48.345637495696984,17.05047173153966 -48.39388419808888,17.368124524965978 -48.4370849598236,17.68650281513157 -48.475228905340394,18.005526452004528 -48.508306432104966,18.3251151230903 -48.53630921302683,18.645188373650033 -48.55923019855565,18.965665626954564 -48.57706361845591,19.286466204569216 -48.5898049832595,19.60750934666413 -48.59745108539596,19.928714232345133 -48.599999999999994,20.25 -48.599999999999994,20.250000000000004 -48.59745108539597,20.57128576765486 -48.5898049832595,20.89249065333587 -48.57706361845592,21.21353379543078 -48.55923019855565,21.534334373045436 -48.53630921302683,21.85481162634997 -48.508306432104966,22.174884876909704 -48.475228905340394,22.494473547995476 -48.43708495982361,22.813497184868424 -48.393884198088884,23.131875475034022 -48.34563749569699,23.449528268460334 -48.29235699849722,23.766375597755335 -48.234056119569814,24.08233769829831 -48.17074953584927,24.397335028320118 -48.1024531844295,24.711288288927452 -48.029184258551716,25.024118444065902 -47.95096120327622,25.33574674041685 -47.867803710838835,25.646094727223208 -47.77973271569358,25.95508427603895 -47.686770389242504,26.26263760039757 -47.588940134254145,26.56867727539437 -47.486266578972035,26.87312625717779 -47.37877557091465,27.175907902344797 -47.26649417036841,27.476945987235407 -47.14945064357548,27.776164727121632 -47.02767445561777,28.073488795285854 -46.901196262999406,28.368843341983933 -46.770047905929,28.662154013288202 -46.63426240030408,28.95334696980573 -46.493873929399555,29.242348905266926 -46.3489178352622,29.529087064980065 -46.19943060981354,29.813489264146824 -46.045449885663146,30.09548390603449 -45.887014426634885,30.375000000000007 -45.72416411800829,30.651967179361474 -45.55693995647767,30.92631571911268 -45.385384039831415,31.197976553475854 -45.20953955635412,31.466881293288733 -45.02945077395412,31.73296224322111 -44.845163029019304,31.996152418816763 -44.656722715003944,32.25638556335647 -44.46417727074935,32.51359616453775 -44.26757516854145,32.76771947096726 -44.06696590190808,33.01869150846158 -43.862399973159306,33.26644909615243 -43.653928880673725,33.51092986239202 -43.44160510593404,33.75207226045491 -43.22548210031505,33.98981558403192 -43.00561427162767,34.22409998251277 -42.78205697042197,34.45486647605301 -42.554866476053,34.68205697042198 -42.32409998251277,34.90561427162767 -42.089815584031925,35.12548210031505 -41.852072260454904,35.341605105934036 -41.61092986239203,35.55392888067372 -41.36644909615243,35.762399973159305 -41.11869150846158,35.966965901908075 -40.86771947096725,36.16757516854145 -40.613596164537746,36.36417727074935 -40.35638556335647,36.556722715003936 -40.096152418816764,36.745163029019295 -39.83296224322111,36.929450773954116 -39.56688129328873,37.10953955635412 -39.297976553475856,37.28538403983141 -39.02631571911268,37.45693995647766 -38.75196717936147,37.62416411800829 -38.475,37.78701442663488 -38.19548390603449,37.945449885663145 -37.913489264146826,38.09943060981354 -37.62908706498006,38.2489178352622 -37.34234890526692,38.393873929399554 -37.05334696980573,38.53426240030408 -36.762154013288196,38.670047905928996 -36.468843341983934,38.80119626299941 -36.17348879528585,38.92767445561777 -35.87616472712163,39.04945064357547 -35.576945987235405,39.16649417036841 -35.2759079023448,39.27877557091465 -34.97312625717778,39.38626657897204 -34.668677275394366,39.48894013425415 -34.36263760039756,39.586770389242496 -34.05508427603895,39.679732715693575 -33.74609472722321,39.76780371083883 -33.43574674041685,39.85096120327621 -33.1241184440659,39.92918425855172 -32.81128828892744,40.00245318442949 -32.49733502832011,40.070749535849274 -32.182337698298305,40.13405611956981 -31.86637559775534,40.19235699849721 -31.549528268460335,40.24563749569699 -31.231875475034023,40.29388419808889 -30.913497184868422,40.3370849598236 -30.594473547995474,40.37522890534039 -30.274884876909695,40.408306432104965 -29.954811626349965,40.43630921302683 -29.634334373045434,40.45923019855565 -29.31353379543078,40.47706361845591 -28.99249065333587,40.489804983259496 -28.67128576765486,40.497451085395966 -28.35,40.5 28.349999999999994,40.5 " style="stroke:black;fill:none;stroke-width:2;stroke-linecap:round;stroke-linejoin:round;" /><polygon points="-89.10000000000001,202.5 -1.785535033156841e-14,137.7 89.09999999999998,202.5 -1.785535033156841e-14,267.3 " style="stroke:black;fill:none;stroke-width:2;stroke-linecap:round;stroke-linejoin:round;" /><polygon points="-89.10000000000011,899.0999999999999 -1.2201156059905077e-13,834.3 89.09999999999988,899.0999999999999 -1.2201156059905077e-13,963.9 " style="stroke:black;fill:none;stroke-width:2;stroke-linecap:round;stroke-linejoin:round;" /><polygon points="-89.10000000000015,1239.3 -1.6069815298411566e-13,1174.5 89.09999999999984,1239.3 -1.6069815298411566e-13,1304.1 " style="stroke:black;fill:none;stroke-width:2;stroke-linecap:round;stroke-linejoin:round;" /><polygon points="-89.10000000000022,1757.6999999999998 -2.321195543103893e-13,1692.8999999999999 89.09999999999977,1757.6999999999998 -2.321195543103893e-13,1822.5 " style="stroke:black;fill:none;stroke-width:2;stroke-linecap:round;stroke-linejoin:round;" /><polygon points="-89.10000000000026,2097.9 -2.708061466954542e-13,2033.1 89.09999999999972,2097.9 -2.708061466954542e-13,2162.7 " style="stroke:black;fill:none;stroke-width:2;stroke-linecap:round;stroke-linejoin:round;" /><polygon points="-89.1000000000003,2438.1 -3.0949273908051904e-13,2373.2999999999997 89.09999999999968,2438.1 -3.0949273908051904e-13,2502.9 " style="stroke:black;fill:none;stroke-width:2;stroke-linecap:round;stroke-linejoin:round;" /><polygon points="-89.10000000000034,2778.2999999999997 -3.4817933146558395e-13,2713.5 89.09999999999965,2778.2999999999997 -3.4817933146558395e-13,2843.1 " style="stroke:black;fill:none;stroke-width:2;stroke-linecap:round;stroke-linejoin:round;" /><polygon points="-89.10000000000038,3118.5 -3.868659238506488e-13,3053.7 89.09999999999961,3118.5 -3.868659238506488e-13,3183.2999999999997 " style="stroke:black;fill:none;stroke-width:2;stroke-linecap:round;stroke-linejoin:round;" /><polygon points="-89.10000000000046,3636.8999999999996 -4.582873251769225e-13,3572.1 89.09999999999954,3636.8999999999996 -4.582873251769225e-13,3701.7 " style="stroke:black;fill:none;stroke-width:2;stroke-linecap:round;stroke-linejoin:round;" /><polygon points="-89.1000000000005,3977.1 -4.969739175619873e-13,3912.2999999999997 89.0999999999995,3977.1 -4.969739175619873e-13,4041.8999999999996 " style="stroke:black;fill:none;stroke-width:2;stroke-linecap:round;stroke-linejoin:round;" /><polygon points="-89.10000000000053,4317.3 -5.356605099470521e-13,4252.5 89.09999999999947,4317.3 -5.356605099470521e-13,4382.099999999999 " style="stroke:black;fill:none;stroke-width:2;stroke-linecap:round;stroke-linejoin:round;" /><polygon points="-89.10000000000058,4657.5 -5.74347102332117e-13,4592.7 89.09999999999943,4657.5 -5.74347102332117e-13,4722.3 " style="stroke:black;fill:none;stroke-width:2;stroke-linecap:round;stroke-linejoin:round;" /><polygon points="137.7,202.5 226.79999999999998,137.7 315.9,202.5 226.79999999999998,267.3 " style="stroke:black;fill:none;stroke-width:2;stroke-linecap:round;stroke-linejoin:round;" /><polygon points="137.7,380.7 226.79999999999998,315.9 315.9,380.7 226.79999999999998,445.5 " style="stroke:black;fill:none;stroke-width:2;stroke-linecap:round;stroke-linejoin:round;" /><polygon points="137.7,558.9 226.79999999999998,494.09999999999997 315.9,558.9 226.79999999999998,623.6999999999999 " style="stroke:black;fill:none;stroke-width:2;stroke-linecap:round;stroke-linejoin:round;" /><polygon points="364.5,380.7 453.59999999999997,315.9 542.6999999999999,380.7 453.59999999999997,445.5 " style="stroke:black;fill:none;stroke-width:2;stroke-linecap:round;stroke-linejoin:round;" /><polygon points="591.3,380.7 680.4,315.9 769.5,380.7 680.4,445.5 " style="stroke:black;fill:none;stroke-width:2;stroke-linecap:round;stroke-linejoin:round;" /><polygon points="818.0999999999999,380.7 907.1999999999999,315.9 996.3,380.7 907.1999999999999,445.5 " style="stroke:black;fill:none;stroke-width:2;stroke-linecap:round;stroke-linejoin:round;" /><polygon points="1044.8999999999999,380.7 1134.0,315.9 1223.1,380.7 1134.0,445.5 " style="stroke:black;fill:none;stroke-width:2;stroke-linecap:round;stroke-linejoin:round;" /><polygon points="1271.7,380.7 1360.8,315.9 1449.8999999999999,380.7 1360.8,445.5 " style="stroke:black;fill:none;stroke-width:2;stroke-linecap:round;stroke-linejoin:round;" /><polygon points="1498.5,380.7 1587.6,315.9 1676.6999999999998,380.7 1587.6,445.5 " style="stroke:black;fill:none;stroke-width:2;stroke-linecap:round;stroke-linejoin:round;" /><polygon points="1725.3,380.7 1814.3999999999999,315.9 1903.5,380.7 1814.3999999999999,445.5 " style="stroke:black;fill:none;stroke-width:2;stroke-linecap:round;stroke-linejoin:round;" /><polygon points="1952.1,380.7 2041.1999999999998,315.9 2130.2999999999997,380.7 2041.1999999999998,445.5 " style="stroke:black;fill:none;stroke-width:2;stroke-linecap:round;stroke-linejoin:round;" /><polygon points="137.69999999999987,899.0999999999999 226.79999999999987,834.3 315.89999999999986,899.0999999999999 226.79999999999987,963.9 " style="stroke:black;fill:none;stroke-width:2;stroke-linecap:round;stroke-linejoin:round;" /><polygon points="137.69999999999982,1239.3 226.7999999999998,1174.5 315.8999999999998,1239.3 226.7999999999998,1304.1 " style="stroke:black;fill:none;stroke-width:2;stroke-linecap:round;stroke-linejoin:round;" /><polygon points="137.69999999999982,1417.5 226.7999999999998,1352.7 315.8999999999998,1417.5 226.7999999999998,1482.3 " style="stroke:black;fill:none;stroke-width:2;stroke-linecap:round;stroke-linejoin:round;" /><polygon points="137.69999999999976,1757.6999999999998 226.79999999999976,1692.8999999999999 315.89999999999975,1757.6999999999998 226.79999999999976,1822.5 " style="stroke:black;fill:none;stroke-width:2;stroke-linecap:round;stroke-linejoin:round;" /><polygon points="137.6999999999997,2097.9 226.7999999999997,2033.1 315.8999999999997,2097.9 226.7999999999997,2162.7 " style="stroke:black;fill:none;stroke-width:2;stroke-linecap:round;stroke-linejoin:round;" /><polygon points="137.69999999999968,2438.1 226.79999999999967,2373.2999999999997 315.89999999999964,2438.1 226.79999999999967,2502.9 " style="stroke:black;fill:none;stroke-width:2;stroke-linecap:round;stroke-linejoin:round;" /><polygon points="137.69999999999965,2778.2999999999997 226.79999999999964,2713.5 315.89999999999964,2778.2999999999997 226.79999999999964,2843.1 " style="stroke:black;fill:none;stroke-width:2;stroke-linecap:round;stroke-linejoin:round;" /><polygon points="137.6999999999996,3118.5 226.79999999999959,3053.7 315.8999999999996,3118.5 226.79999999999959,3183.2999999999997 " style="stroke:black;fill:none;stroke-width:2;stroke-linecap:round;stroke-linejoin:round;" /><polygon points="137.6999999999996,3296.7 226.79999999999959,3231.8999999999996 315.8999999999996,3296.7 226.79999999999959,3361.5 " style="stroke:black;fill:none;stroke-width:2;stroke-linecap:round;stroke-linejoin:round;" /><polygon points="364.4999999999996,3118.5 453.59999999999957,3053.7 542.6999999999995,3118.5 453.59999999999957,3183.2999999999997 " style="stroke:black;fill:none;stroke-width:2;stroke-linecap:round;stroke-linejoin:round;" /><polygon points="591.2999999999995,3118.5 680.3999999999995,3053.7 769.4999999999995,3118.5 680.3999999999995,3183.2999999999997 " style="stroke:black;fill:none;stroke-width:2;stroke-linecap:round;stroke-linejoin:round;" /><polygon points="137.69999999999953,3636.8999999999996 226.79999999999953,3572.1 315.8999999999995,3636.8999999999996 226.79999999999953,3701.7 " style="stroke:black;fill:none;stroke-width:2;stroke-linecap:round;stroke-linejoin:round;" /><polygon points="137.69999999999948,3977.1 226.79999999999947,3912.2999999999997 315.89999999999947,3977.1 226.79999999999947,4041.8999999999996 " style="stroke:black;fill:none;stroke-width:2;stroke-linecap:round;stroke-linejoin:round;" /><polygon points="137.69999999999948,4317.3 226.79999999999947,4252.5 315.89999999999947,4317.3 226.79999999999947,4382.099999999999 " style="stroke:black;fill:none;stroke-width:2;stroke-linecap:round;stroke-linejoin:round;" /><polygon points="137.69999999999942,4657.5 226.79999999999941,4592.7 315.8999999999994,4657.5 226.79999999999941,4722.3 " style="stroke:black;fill:none;stroke-width:2;stroke-linecap:round;stroke-linejoin:round;" /><path d="M 0.0,40.5 L -8.927675165784204e-15,89.1 L -1.6552770985330332e-14,129.6" style="stroke:black;fill:none;stroke-width:2;stroke-linecap:round;stroke-linejoin:round;" /><path d="M -1.753372580163308e-14 135.7 L -2.4300000000000166 129.59999999999997 L 2.429999999999983 129.59999999999997 Z" style="stroke:black;fill:black;stroke-linecap:butt;stroke-linejoin:miter;" /><path d="M -1.785535033156841e-14,267.3 L -6.99334554653096e-14,550.8 L -1.207089812528127e-13,826.1999999999999" style="stroke:black;fill:none;stroke-width:2;stroke-linecap:round;stroke-linejoin:round;" /><path d="M -1.2168993606911544e-13 832.3 L -2.4300000000001205 826.2 L 2.429999999999879 826.2 Z" style="stroke:black;fill:black;stroke-linecap:butt;stroke-linejoin:miter;" /><path d="M -1.2201156059905077e-13,963.9 L -1.4135485679158323e-13,1069.2 L -1.593955736378776e-13,1166.3999999999999" style="stroke:black;fill:none;stroke-width:2;stroke-linecap:round;stroke-linejoin:round;" /><path d="M -1.6037652845418033e-13 1172.5 L -2.430000000000159 1166.4 L 2.4299999999998403 1166.4 Z" style="stroke:black;fill:black;stroke-linecap:butt;stroke-linejoin:miter;" /><path d="M -1.6069815298411566e-13,1304.1 L -1.964088536472525e-13,1498.5 L -2.308169749641512e-13,1684.8" style="stroke:black;fill:none;stroke-width:2;stroke-linecap:round;stroke-linejoin:round;" /><path d="M -2.31797929780454e-13 1690.8999999999999 L -2.4300000000002306 1684.8 L 2.429999999999769 1684.8 Z" style="stroke:black;fill:black;stroke-linecap:butt;stroke-linejoin:miter;" /><path d="M -2.321195543103893e-13,1822.5 L -2.514628505029217e-13,1927.8 L -2.695035673492161e-13,2025.0" style="stroke:black;fill:none;stroke-width:2;stroke-linecap:round;stroke-linejoin:round;" /><path d="M -2.704845221655189e-13 2031.1 L -2.4300000000002693 2025.0 L 2.42999999999973 2025.0 Z" style="stroke:black;fill:black;stroke-linecap:butt;stroke-linejoin:miter;" /><path d="M -2.708061466954542e-13,2162.7 L -2.9014944288798663e-13,2268.0 L -3.08190159734281e-13,2365.2" style="stroke:black;fill:none;stroke-width:2;stroke-linecap:round;stroke-linejoin:round;" /><path d="M -3.0917111455058374e-13 2371.2999999999997 L -2.430000000000308 2365.1999999999994 L 2.4299999999996915 2365.1999999999994 Z" style="stroke:black;fill:black;stroke-linecap:butt;stroke-linejoin:miter;" /><path d="M -3.0949273908051904e-13,2502.9 L -3.288360352730515e-13,2608.2 L -3.4687675211934586e-13,2705.4" style="stroke:black;fill:none;stroke-width:2;stroke-linecap:round;stroke-linejoin:round;" /><path d="M -3.4785770693564865e-13 2711.5 L -2.430000000000347 2705.3999999999996 L 2.4299999999996524 2705.3999999999996 Z" style="stroke:black;fill:black;stroke-linecap:butt;stroke-linejoin:miter;" /><path d="M -3.4817933146558395e-13,2843.1 L -3.675226276581164e-13,2948.4 L -3.8556334450441077e-13,3045.6" style="stroke:black;fill:none;stroke-width:2;stroke-linecap:round;stroke-linejoin:round;" /><path d="M -3.865442993207135e-13 3051.7 L -2.4300000000003856 3045.5999999999995 L 2.429999999999614 3045.5999999999995 Z" style="stroke:black;fill:black;stroke-linecap:butt;stroke-linejoin:miter;" /><path d="M -3.868659238506488e-13,3183.2999999999997 L -4.2257662451378564e-13,3377.7 L -4.569847458306844e-13,3564.0" style="stroke:black;fill:none;stroke-width:2;stroke-linecap:round;stroke-linejoin:round;" /><path d="M -4.579657006469872e-13 3570.1 L -2.430000000000457 3563.9999999999995 L 2.4299999999995423 3563.9999999999995 Z" style="stroke:black;fill:black;stroke-linecap:butt;stroke-linejoin:miter;" /><path d="M -4.582873251769225e-13,3701.7 L -4.776306213694549e-13,3807.0 L -4.956713382157492e-13,3904.2" style="stroke:black;fill:none;stroke-width:2;stroke-linecap:round;stroke-linejoin:round;" /><path d="M -4.96652293032052e-13 3910.2999999999997 L -2.4300000000004958 3904.1999999999994 L 2.4299999999995037 3904.1999999999994 Z" style="stroke:black;fill:black;stroke-linecap:butt;stroke-linejoin:miter;" /><path d="M -4.969739175619873e-13,4041.8999999999996 L -5.163172137545197e-13,4147.2 L -5.34357930600814e-13,4244.4" style="stroke:black;fill:none;stroke-width:2;stroke-linecap:round;stroke-linejoin:round;" /><path d="M -5.353388854171168e-13 4250.5 L -2.4300000000005344 4244.4 L 2.429999999999465 4244.4 Z" style="stroke:black;fill:black;stroke-linecap:butt;stroke-linejoin:miter;" /><path d="M -5.356605099470521e-13,4382.099999999999 L -5.550038061395845e-13,4487.4 L -5.730445229858789e-13,4584.599999999999" style="stroke:black;fill:none;stroke-width:2;stroke-linecap:round;stroke-linejoin:round;" /><path d="M -5.740254778021817e-13 4590.7 L -2.430000000000573 4584.599999999999 L 2.4299999999994264 4584.599999999999 Z" style="stroke:black;fill:black;stroke-linecap:butt;stroke-linejoin:miter;" /><path d="M 89.09999999999998,202.5 L 113.39999999999998,202.5 L 129.6,202.5" style="stroke:black;fill:none;stroke-width:2;stroke-linecap:round;stroke-linejoin:round;" /><path d="M 135.7 202.5 L 129.59999999999997 204.93 L 129.59999999999997 200.07 Z" style="stroke:black;fill:black;stroke-linecap:butt;stroke-linejoin:miter;" /><path d="M 226.79999999999998,267.3 L 226.79999999999998,291.59999999999997 L 226.79999999999998,307.8" style="stroke:black;fill:none;stroke-width:2;stroke-linecap:round;stroke-linejoin:round;" /><path d="M 226.79999999999998 313.9 L 224.36999999999998 307.79999999999995 L 229.23 307.79999999999995 Z" style="stroke:black;fill:black;stroke-linecap:butt;stroke-linejoin:miter;" /><path d="M 226.79999999999998,445.5 L 226.79999999999998,469.79999999999995 L 226.79999999999998,486.0" style="stroke:black;fill:none;stroke-width:2;stroke-linecap:round;stroke-linejoin:round;" /><path d="M 226.79999999999998 492.09999999999997 L 224.36999999999998 485.99999999999994 L 229.23 485.99999999999994 Z" style="stroke:black;fill:black;stroke-linecap:butt;stroke-linejoin:miter;" /><path d="M 226.79999999999998,267.3 L 226.79999999999998,307.8" style="stroke:black;fill:none;stroke-width:2;stroke-linecap:round;stroke-linejoin:round;" /><path d="M 226.79999999999998 313.9 L 224.36999999999998 307.79999999999995 L 229.23 307.79999999999995 Z" style="stroke:black;fill:black;stroke-linecap:butt;stroke-linejoin:miter;" /><path d="M 315.9,202.5 L 340.2,202.5 L 356.4,202.5" style="stroke:black;fill:none;stroke-width:2;stroke-linecap:round;stroke-linejoin:round;" /><path d="M 362.5 202.5 L 356.4 204.93 L 356.4 200.07 Z" style="stroke:black;fill:black;stroke-linecap:butt;stroke-linejoin:miter;" /><path d="M 364.5,202.5 L 364.5,137.7 L 477.9,137.7 L 477.9,267.3 L 364.5,267.3 L 364.5,202.5" style="stroke:black;fill:none;stroke-width:2;stroke-linecap:round;stroke-linejoin:round;" /><path d="M 226.79999999999998,445.5 L 226.79999999999998,486.0" style="stroke:black;fill:none;stroke-width:2;stroke-linecap:round;stroke-linejoin:round;" /><path d="M 226.79999999999998 492.09999999999997 L 224.36999999999998 485.99999999999994 L 229.23 485.99999999999994 Z" style="stroke:black;fill:black;stroke-linecap:butt;stroke-linejoin:miter;" /><path d="M 315.9,380.7 L 340.2,380.7 L 356.4,380.7" style="stroke:black;fill:none;stroke-width:2;stroke-linecap:round;stroke-linejoin:round;" /><path d="M 362.5 380.7 L 356.4 383.13 L 356.4 378.27 Z" style="stroke:black;fill:black;stroke-linecap:butt;stroke-linejoin:miter;" /><path d="M 453.59999999999997,445.5 L 234.720199554027,492.4028143812799" style="stroke:black;fill:none;stroke-width:2;stroke-linecap:round;stroke-linejoin:round;" /><path d="M 228.75560482815482 493.6809418225382 L 234.211043868411 490.0267545150718 L 235.229355239643 494.77887424748803 Z" style="stroke:black;fill:black;stroke-linecap:butt;stroke-linejoin:miter;" /><path d="M 542.6999999999999,380.7 L 567.0,380.7 L 583.1999999999999,380.7" style="stroke:black;fill:none;stroke-width:2;stroke-linecap:round;stroke-linejoin:round;" /><path d="M 589.3 380.7 L 583.2 383.13 L 583.2 378.27 Z" style="stroke:black;fill:black;stroke-linecap:butt;stroke-linejoin:miter;" /><path d="M 680.4,445.5 L 234.85390414675044,493.23708169856246" style="stroke:black;fill:none;stroke-width:2;stroke-linecap:round;stroke-linejoin:round;" /><path d="M 228.7886183078396 493.8869337527314 L 234.59502865631916 490.8209104545373 L 235.1127796371817 495.6532529425876 Z" style="stroke:black;fill:black;stroke-linecap:butt;stroke-linejoin:miter;" /><path d="M 769.5,380.7 L 793.8,380.7 L 810.0,380.7" style="stroke:black;fill:none;stroke-width:2;stroke-linecap:round;stroke-linejoin:round;" /><path d="M 816.0999999999999 380.7 L 810.0 383.13 L 810.0 378.27 Z" style="stroke:black;fill:black;stroke-linecap:butt;stroke-linejoin:miter;" /><path d="M 907.1999999999999,445.5 L 234.87941546862893,493.5228988950979" style="stroke:black;fill:none;stroke-width:2;stroke-linecap:round;stroke-linejoin:round;" /><path d="M 228.79491739966144 493.95750590002416 L 234.70628513715832 491.09907425450916 L 235.05254580009955 495.94672353568654 Z" style="stroke:black;fill:black;stroke-linecap:butt;stroke-linejoin:miter;" /><path d="M 996.3,380.7 L 1020.5999999999999,380.7 L 1036.8,380.7" style="stroke:black;fill:none;stroke-width:2;stroke-linecap:round;stroke-linejoin:round;" /><path d="M 1042.8999999999999 380.7 L 1036.8 383.13 L 1036.8 378.27 Z" style="stroke:black;fill:black;stroke-linecap:butt;stroke-linejoin:miter;" /><path d="M 1134.0,445.5 L 234.88840187138769,493.6666927568899" style="stroke:black;fill:none;stroke-width:2;stroke-linecap:round;stroke-linejoin:round;" /><path d="M 228.79713626454017 493.99301055725675 L 234.75840969845467 491.2401721954736 L 235.0183940443207 496.0932133183062 Z" style="stroke:black;fill:black;stroke-linecap:butt;stroke-linejoin:miter;" /><path d="M 1223.1,380.7 L 1247.3999999999999,380.7 L 1263.6,380.7" style="stroke:black;fill:none;stroke-width:2;stroke-linecap:round;stroke-linejoin:round;" /><path d="M 1269.7 380.7 L 1263.6000000000001 383.13 L 1263.6000000000001 378.27 Z" style="stroke:black;fill:black;stroke-linecap:butt;stroke-linejoin:miter;" /><path d="M 1360.8,445.5 L 234.8925714561231,493.75317550902327" style="stroke:black;fill:none;stroke-width:2;stroke-linecap:round;stroke-linejoin:round;" /><path d="M 228.7981657916353 494.0143643232156 L 234.7885241088301 491.3254040721863 L 234.99661880341614 496.1809469458602 Z" style="stroke:black;fill:black;stroke-linecap:butt;stroke-linejoin:miter;" /><path d="M 1449.8999999999999,380.7 L 1474.2,380.7 L 1490.3999999999999,380.7" style="stroke:black;fill:none;stroke-width:2;stroke-linecap:round;stroke-linejoin:round;" /><path d="M 1496.5 380.7 L 1490.4 383.13 L 1490.4 378.27 Z" style="stroke:black;fill:black;stroke-linecap:butt;stroke-linejoin:miter;" /><path d="M 1587.6,445.5 L 234.89483912021512,493.8108986028495" style="stroke:black;fill:none;stroke-width:2;stroke-linecap:round;stroke-linejoin:round;" /><path d="M 228.7987257086951 494.0286169389751 L 234.80810870106998 491.3824468667849 L 234.9815695393603 496.239350338914 Z" style="stroke:black;fill:black;stroke-linecap:butt;stroke-linejoin:miter;" /><path d="M 1676.6999999999998,380.7 L 1701.0,380.7 L 1717.1999999999998,380.7" style="stroke:black;fill:none;stroke-width:2;stroke-linecap:round;stroke-linejoin:round;" /><path d="M 1723.3 380.7 L 1717.2 383.13 L 1717.2 378.27 Z" style="stroke:black;fill:black;stroke-linecap:butt;stroke-linejoin:miter;" /><path d="M 1814.3999999999999,445.5 L 234.89620737174536,493.85215691719145" style="stroke:black;fill:none;stroke-width:2;stroke-linecap:round;stroke-linejoin:round;" /><path d="M 228.79906354857908 494.0388041770843 L 234.8218544469028 491.4232947056678 L 234.9705602965879 496.281019128715 Z" style="stroke:black;fill:black;stroke-linecap:butt;stroke-linejoin:miter;" /><path d="M 1903.5,380.7 L 1927.8,380.7 L 1944.0,380.7" style="stroke:black;fill:none;stroke-width:2;stroke-linecap:round;stroke-linejoin:round;" /><path d="M 1950.1 380.7 L 1944.0 383.13 L 1944.0 378.27 Z" style="stroke:black;fill:black;stroke-linecap:butt;stroke-linejoin:miter;" /><path d="M 2041.1999999999998,445.5 L 234.89709579099483,493.8831135055983" style="stroke:black;fill:none;stroke-width:2;stroke-linecap:round;stroke-linejoin:round;" /><path d="M 228.79928291135673 494.0464477791601 L 234.83202984267433 491.4539847682999 L 234.96216173931532 496.3122422428968 Z" style="stroke:black;fill:black;stroke-linecap:butt;stroke-linejoin:miter;" /><path d="M 2130.2999999999997,380.7 L 2154.6,380.7 L 2170.7999999999997,380.7" style="stroke:black;fill:none;stroke-width:2;stroke-linecap:round;stroke-linejoin:round;" /><path d="M 2176.9 380.7 L 2170.7999999999997 383.13 L 2170.7999999999997 378.27 Z" style="stroke:black;fill:black;stroke-linecap:butt;stroke-linejoin:miter;" /><path d="M 2178.9,380.7 L 2178.9,315.9 L 2292.2999999999997,315.9 L 2292.2999999999997,445.5 L 2178.9,445.5 L 2178.9,380.7" style="stroke:black;fill:none;stroke-width:2;stroke-linecap:round;stroke-linejoin:round;" /><path d="M 226.79999999999998,623.6999999999999 L 226.79999999999998,648.0 L 226.79999999999998,664.1999999999999" style="stroke:black;fill:none;stroke-width:2;stroke-linecap:round;stroke-linejoin:round;" /><path d="M 226.79999999999998 670.3 L 224.36999999999998 664.2 L 229.23 664.2 Z" style="stroke:black;fill:black;stroke-linecap:butt;stroke-linejoin:miter;" /><path d="M 170.1,737.1 L 170.1,672.3 L 283.5,672.3 L 283.5,801.9 L 170.1,801.9 L 170.1,737.1" style="stroke:black;fill:none;stroke-width:2;stroke-linecap:round;stroke-linejoin:round;" /><path d="M 315.9,558.9 L 340.2,558.9 L 356.4,558.9" style="stroke:black;fill:none;stroke-width:2;stroke-linecap:round;stroke-linejoin:round;" /><path d="M 362.5 558.9 L 356.4 561.3299999999999 L 356.4 556.47 Z" style="stroke:black;fill:black;stroke-linecap:butt;stroke-linejoin:miter;" /><path d="M 364.5,558.9 L 364.5,494.09999999999997 L 477.9,494.09999999999997 L 477.9,623.6999999999999 L 364.5,623.6999999999999 L 364.5,558.9" style="stroke:black;fill:none;stroke-width:2;stroke-linecap:round;stroke-linejoin:round;" /><path d="M 89.09999999999988,899.0999999999999 L 113.39999999999988,899.0999999999999 L 129.59999999999988,899.0999999999999" style="stroke:black;fill:none;stroke-width:2;stroke-linecap:round;stroke-linejoin:round;" /><path d="M 135.69999999999987 899.0999999999999 L 129.59999999999985 901.5299999999999 L 129.59999999999985 896.67 Z" style="stroke:black;fill:black;stroke-linecap:butt;stroke-linejoin:miter;" /><path d="M 226.79999999999987,963.9 L 226.79999999999987,988.1999999999999 L 226.79999999999987,1004.4" style="stroke:black;fill:none;stroke-width:2;stroke-linecap:round;stroke-linejoin:round;" /><path d="M 226.79999999999987 1010.5 L 224.36999999999986 1004.4000000000001 L 229.22999999999988 1004.4000000000001 Z" style="stroke:black;fill:black;stroke-linecap:butt;stroke-linejoin:miter;" /><path d="M 170.09999999999988,1077.3 L 170.09999999999988,1012.5 L 283.4999999999999,1012.5 L 283.4999999999999,1142.1 L 170.09999999999988,1142.1 L 170.09999999999988,1077.3" style="stroke:black;fill:none;stroke-width:2;stroke-linecap:round;stroke-linejoin:round;" /><path d="M 315.89999999999986,899.0999999999999 L 340.1999999999999,899.0999999999999 L 356.39999999999986,899.0999999999999" style="stroke:black;fill:none;stroke-width:2;stroke-linecap:round;stroke-linejoin:round;" /><path d="M 362.4999999999999 899.0999999999999 L 356.39999999999986 901.5299999999999 L 356.39999999999986 896.67 Z" style="stroke:black;fill:black;stroke-linecap:butt;stroke-linejoin:miter;" /><path d="M 364.4999999999999,899.0999999999999 L 364.4999999999999,834.3 L 477.89999999999986,834.3 L 477.89999999999986,963.9 L 364.4999999999999,963.9 L 364.4999999999999,899.0999999999999" style="stroke:black;fill:none;stroke-width:2;stroke-linecap:round;stroke-linejoin:round;" /><path d="M 89.09999999999984,1239.3 L 113.39999999999984,1239.3 L 129.59999999999982,1239.3" style="stroke:black;fill:none;stroke-width:2;stroke-linecap:round;stroke-linejoin:round;" /><path d="M 135.69999999999982 1239.3 L 129.5999999999998 1241.73 L 129.5999999999998 1236.87 Z" style="stroke:black;fill:black;stroke-linecap:butt;stroke-linejoin:miter;" /><path d="M 226.7999999999998,1304.1 L 226.7999999999998,1328.3999999999999 L 226.7999999999998,1344.6" style="stroke:black;fill:none;stroke-width:2;stroke-linecap:round;stroke-linejoin:round;" /><path d="M 226.7999999999998 1350.7 L 224.3699999999998 1344.6000000000001 L 229.22999999999982 1344.6000000000001 Z" style="stroke:black;fill:black;stroke-linecap:butt;stroke-linejoin:miter;" /><path d="M 226.7999999999998,1304.1 L 226.7999999999998,1344.6" style="stroke:black;fill:none;stroke-width:2;stroke-linecap:round;stroke-linejoin:round;" /><path d="M 226.7999999999998 1350.7 L 224.3699999999998 1344.6000000000001 L 229.22999999999982 1344.6000000000001 Z" style="stroke:black;fill:black;stroke-linecap:butt;stroke-linejoin:miter;" /><path d="M 315.8999999999998,1239.3 L 340.1999999999998,1239.3 L 356.3999999999998,1239.3" style="stroke:black;fill:none;stroke-width:2;stroke-linecap:round;stroke-linejoin:round;" /><path d="M 362.49999999999983 1239.3 L 356.3999999999998 1241.73 L 356.3999999999998 1236.87 Z" style="stroke:black;fill:black;stroke-linecap:butt;stroke-linejoin:miter;" /><path d="M 364.49999999999983,1239.3 L 364.49999999999983,1174.5 L 477.8999999999998,1174.5 L 477.8999999999998,1304.1 L 364.49999999999983,1304.1 L 364.49999999999983,1239.3" style="stroke:black;fill:none;stroke-width:2;stroke-linecap:round;stroke-linejoin:round;" /><path d="M 226.7999999999998,1482.3 L 226.7999999999998,1506.6 L 226.7999999999998,1522.8" style="stroke:black;fill:none;stroke-width:2;stroke-linecap:round;stroke-linejoin:round;" /><path d="M 226.7999999999998 1528.8999999999999 L 224.3699999999998 1522.8 L 229.22999999999982 1522.8 Z" style="stroke:black;fill:black;stroke-linecap:butt;stroke-linejoin:miter;" /><path d="M 170.09999999999982,1595.6999999999998 L 170.09999999999982,1530.8999999999999 L 283.49999999999983,1530.8999999999999 L 283.49999999999983,1660.5 L 170.09999999999982,1660.5 L 170.09999999999982,1595.6999999999998" style="stroke:black;fill:none;stroke-width:2;stroke-linecap:round;stroke-linejoin:round;" /><path d="M 315.8999999999998,1417.5 L 340.1999999999998,1417.5 L 356.3999999999998,1417.5" style="stroke:black;fill:none;stroke-width:2;stroke-linecap:round;stroke-linejoin:round;" /><path d="M 362.49999999999983 1417.5 L 356.3999999999998 1419.93 L 356.3999999999998 1415.07 Z" style="stroke:black;fill:black;stroke-linecap:butt;stroke-linejoin:miter;" /><path d="M 364.49999999999983,1417.5 L 364.49999999999983,1352.7 L 477.8999999999998,1352.7 L 477.8999999999998,1482.3 L 364.49999999999983,1482.3 L 364.49999999999983,1417.5" style="stroke:black;fill:none;stroke-width:2;stroke-linecap:round;stroke-linejoin:round;" /><path d="M 89.09999999999977,1757.6999999999998 L 113.39999999999976,1757.6999999999998 L 129.59999999999977,1757.6999999999998" style="stroke:black;fill:none;stroke-width:2;stroke-linecap:round;stroke-linejoin:round;" /><path d="M 135.69999999999976 1757.6999999999998 L 129.59999999999974 1760.1299999999999 L 129.59999999999974 1755.2699999999998 Z" style="stroke:black;fill:black;stroke-linecap:butt;stroke-linejoin:miter;" /><path d="M 226.79999999999976,1822.5 L 226.79999999999976,1846.8 L 226.79999999999976,1863.0" style="stroke:black;fill:none;stroke-width:2;stroke-linecap:round;stroke-linejoin:round;" /><path d="M 226.79999999999976 1869.1 L 224.36999999999975 1863.0 L 229.22999999999976 1863.0 Z" style="stroke:black;fill:black;stroke-linecap:butt;stroke-linejoin:miter;" /><path d="M 170.09999999999977,1935.8999999999999 L 170.09999999999977,1871.1 L 283.4999999999998,1871.1 L 283.4999999999998,2000.6999999999998 L 170.09999999999977,2000.6999999999998 L 170.09999999999977,1935.8999999999999" style="stroke:black;fill:none;stroke-width:2;stroke-linecap:round;stroke-linejoin:round;" /><path d="M 315.89999999999975,1757.6999999999998 L 340.19999999999976,1757.6999999999998 L 356.39999999999975,1757.6999999999998" style="stroke:black;fill:none;stroke-width:2;stroke-linecap:round;stroke-linejoin:round;" /><path d="M 362.4999999999998 1757.6999999999998 L 356.39999999999975 1760.1299999999999 L 356.39999999999975 1755.2699999999998 Z" style="stroke:black;fill:black;stroke-linecap:butt;stroke-linejoin:miter;" /><path d="M 364.4999999999998,1757.6999999999998 L 364.4999999999998,1692.8999999999999 L 477.89999999999975,1692.8999999999999 L 477.89999999999975,1822.5 L 364.4999999999998,1822.5 L 364.4999999999998,1757.6999999999998" style="stroke:black;fill:none;stroke-width:2;stroke-linecap:round;stroke-linejoin:round;" /><path d="M 89.09999999999972,2097.9 L 113.39999999999972,2097.9 L 129.5999999999997,2097.9" style="stroke:black;fill:none;stroke-width:2;stroke-linecap:round;stroke-linejoin:round;" /><path d="M 135.6999999999997 2097.9 L 129.59999999999968 2100.33 L 129.59999999999968 2095.4700000000003 Z" style="stroke:black;fill:black;stroke-linecap:butt;stroke-linejoin:miter;" /><path d="M 226.7999999999997,2162.7 L 226.7999999999997,2187.0 L 226.7999999999997,2203.2" style="stroke:black;fill:none;stroke-width:2;stroke-linecap:round;stroke-linejoin:round;" /><path d="M 226.7999999999997 2209.2999999999997 L 224.3699999999997 2203.1999999999994 L 229.2299999999997 2203.1999999999994 Z" style="stroke:black;fill:black;stroke-linecap:butt;stroke-linejoin:miter;" /><path d="M 170.0999999999997,2276.1 L 170.0999999999997,2211.2999999999997 L 283.4999999999997,2211.2999999999997 L 283.4999999999997,2340.9 L 170.0999999999997,2340.9 L 170.0999999999997,2276.1" style="stroke:black;fill:none;stroke-width:2;stroke-linecap:round;stroke-linejoin:round;" /><path d="M 315.8999999999997,2097.9 L 340.1999999999997,2097.9 L 356.3999999999997,2097.9" style="stroke:black;fill:none;stroke-width:2;stroke-linecap:round;stroke-linejoin:round;" /><path d="M 362.4999999999997 2097.9 L 356.3999999999997 2100.33 L 356.3999999999997 2095.4700000000003 Z" style="stroke:black;fill:black;stroke-linecap:butt;stroke-linejoin:miter;" /><path d="M 364.4999999999997,2097.9 L 364.4999999999997,2033.1 L 477.8999999999997,2033.1 L 477.8999999999997,2162.7 L 364.4999999999997,2162.7 L 364.4999999999997,2097.9" style="stroke:black;fill:none;stroke-width:2;stroke-linecap:round;stroke-linejoin:round;" /><path d="M 89.09999999999968,2438.1 L 113.39999999999968,2438.1 L 129.59999999999968,2438.1" style="stroke:black;fill:none;stroke-width:2;stroke-linecap:round;stroke-linejoin:round;" /><path d="M 135.69999999999968 2438.1 L 129.59999999999965 2440.5299999999997 L 129.59999999999965 2435.67 Z" style="stroke:black;fill:black;stroke-linecap:butt;stroke-linejoin:miter;" /><path d="M 226.79999999999967,2502.9 L 226.79999999999967,2527.2 L 226.79999999999967,2543.4" style="stroke:black;fill:none;stroke-width:2;stroke-linecap:round;stroke-linejoin:round;" /><path d="M 226.79999999999967 2549.5 L 224.36999999999966 2543.3999999999996 L 229.22999999999968 2543.3999999999996 Z" style="stroke:black;fill:black;stroke-linecap:butt;stroke-linejoin:miter;" /><path d="M 170.09999999999968,2616.2999999999997 L 170.09999999999968,2551.5 L 283.49999999999966,2551.5 L 283.49999999999966,2681.1 L 170.09999999999968,2681.1 L 170.09999999999968,2616.2999999999997" style="stroke:black;fill:none;stroke-width:2;stroke-linecap:round;stroke-linejoin:round;" /><path d="M 315.89999999999964,2438.1 L 340.19999999999965,2438.1 L 356.39999999999964,2438.1" style="stroke:black;fill:none;stroke-width:2;stroke-linecap:round;stroke-linejoin:round;" /><path d="M 362.49999999999966 2438.1 L 356.39999999999964 2440.5299999999997 L 356.39999999999964 2435.67 Z" style="stroke:black;fill:black;stroke-linecap:butt;stroke-linejoin:miter;" /><path d="M 364.49999999999966,2438.1 L 364.49999999999966,2373.2999999999997 L 477.89999999999964,2373.2999999999997 L 477.89999999999964,2502.9 L 364.49999999999966,2502.9 L 364.49999999999966,2438.1" style="stroke:black;fill:none;stroke-width:2;stroke-linecap:round;stroke-linejoin:round;" /><path d="M 89.09999999999965,2778.2999999999997 L 113.39999999999965,2778.2999999999997 L 129.59999999999965,2778.2999999999997" style="stroke:black;fill:none;stroke-width:2;stroke-linecap:round;stroke-linejoin:round;" /><path d="M 135.69999999999965 2778.2999999999997 L 129.59999999999962 2780.7299999999996 L 129.59999999999962 2775.87 Z" style="stroke:black;fill:black;stroke-linecap:butt;stroke-linejoin:miter;" /><path d="M 226.79999999999964,2843.1 L 226.79999999999964,2867.4 L 226.79999999999964,2883.6" style="stroke:black;fill:none;stroke-width:2;stroke-linecap:round;stroke-linejoin:round;" /><path d="M 226.79999999999964 2889.7 L 224.36999999999964 2883.5999999999995 L 229.22999999999965 2883.5999999999995 Z" style="stroke:black;fill:black;stroke-linecap:butt;stroke-linejoin:miter;" /><path d="M 170.09999999999965,2956.5 L 170.09999999999965,2891.7 L 283.49999999999966,2891.7 L 283.49999999999966,3021.2999999999997 L 170.09999999999965,3021.2999999999997 L 170.09999999999965,2956.5" style="stroke:black;fill:none;stroke-width:2;stroke-linecap:round;stroke-linejoin:round;" /><path d="M 315.89999999999964,2778.2999999999997 L 340.19999999999965,2778.2999999999997 L 356.39999999999964,2778.2999999999997" style="stroke:black;fill:none;stroke-width:2;stroke-linecap:round;stroke-linejoin:round;" /><path d="M 362.49999999999966 2778.2999999999997 L 356.39999999999964 2780.7299999999996 L 356.39999999999964 2775.87 Z" style="stroke:black;fill:black;stroke-linecap:butt;stroke-linejoin:miter;" /><path d="M 364.49999999999966,2778.2999999999997 L 364.49999999999966,2713.5 L 477.89999999999964,2713.5 L 477.89999999999964,2843.1 L 364.49999999999966,2843.1 L 364.49999999999966,2778.2999999999997" style="stroke:black;fill:none;stroke-width:2;stroke-linecap:round;stroke-linejoin:round;" /><path d="M 89.09999999999961,3118.5 L 113.39999999999961,3118.5 L 129.5999999999996,3118.5" style="stroke:black;fill:none;stroke-width:2;stroke-linecap:round;stroke-linejoin:round;" /><path d="M 135.6999999999996 3118.5 L 129.59999999999957 3120.93 L 129.59999999999957 3116.07 Z" style="stroke:black;fill:black;stroke-linecap:butt;stroke-linejoin:miter;" /><path d="M 226.79999999999959,3183.2999999999997 L 226.79999999999959,3207.6 L 226.79999999999959,3223.7999999999997" style="stroke:black;fill:none;stroke-width:2;stroke-linecap:round;stroke-linejoin:round;" /><path d="M 226.79999999999959 3229.8999999999996 L 224.36999999999958 3223.7999999999993 L 229.2299999999996 3223.7999999999993 Z" style="stroke:black;fill:black;stroke-linecap:butt;stroke-linejoin:miter;" /><path d="M 226.79999999999959,3183.2999999999997 L 226.79999999999959,3223.7999999999997" style="stroke:black;fill:none;stroke-width:2;stroke-linecap:round;stroke-linejoin:round;" /><path d="M 226.79999999999959 3229.8999999999996 L 224.36999999999958 3223.7999999999993 L 229.2299999999996 3223.7999999999993 Z" style="stroke:black;fill:black;stroke-linecap:butt;stroke-linejoin:miter;" /><path d="M 315.8999999999996,3118.5 L 340.1999999999996,3118.5 L 356.3999999999996,3118.5" style="stroke:black;fill:none;stroke-width:2;stroke-linecap:round;stroke-linejoin:round;" /><path d="M 362.4999999999996 3118.5 L 356.3999999999996 3120.93 L 356.3999999999996 3116.07 Z" style="stroke:black;fill:black;stroke-linecap:butt;stroke-linejoin:miter;" /><path d="M 453.59999999999957,3183.2999999999997 L 234.7201995540266,3230.20281438128" style="stroke:black;fill:none;stroke-width:2;stroke-linecap:round;stroke-linejoin:round;" /><path d="M 228.75560482815442 3231.4809418225377 L 234.2110438684106 3227.8267545150716 L 235.22935523964262 3232.5788742474874 Z" style="stroke:black;fill:black;stroke-linecap:butt;stroke-linejoin:miter;" /><path d="M 542.6999999999995,3118.5 L 566.9999999999995,3118.5 L 583.1999999999995,3118.5" style="stroke:black;fill:none;stroke-width:2;stroke-linecap:round;stroke-linejoin:round;" /><path d="M 589.2999999999995 3118.5 L 583.1999999999996 3120.93 L 583.1999999999996 3116.07 Z" style="stroke:black;fill:black;stroke-linecap:butt;stroke-linejoin:miter;" /><path d="M 680.3999999999995,3183.2999999999997 L 234.85390414675004,3231.0370816985624" style="stroke:black;fill:none;stroke-width:2;stroke-linecap:round;stroke-linejoin:round;" /><path d="M 228.78861830783922 3231.686933752731 L 234.59502865631876 3228.620910454537 L 235.1127796371813 3233.4532529425874 Z" style="stroke:black;fill:black;stroke-linecap:butt;stroke-linejoin:miter;" /><path d="M 769.4999999999995,3118.5 L 793.7999999999995,3118.5 L 809.9999999999995,3118.5" style="stroke:black;fill:none;stroke-width:2;stroke-linecap:round;stroke-linejoin:round;" /><path d="M 816.0999999999995 3118.5 L 809.9999999999995 3120.93 L 809.9999999999995 3116.07 Z" style="stroke:black;fill:black;stroke-linecap:butt;stroke-linejoin:miter;" /><path d="M 818.0999999999995,3118.5 L 818.0999999999995,3053.7 L 931.4999999999995,3053.7 L 931.4999999999995,3183.2999999999997 L 818.0999999999995,3183.2999999999997 L 818.0999999999995,3118.5" style="stroke:black;fill:none;stroke-width:2;stroke-linecap:round;stroke-linejoin:round;" /><path d="M 226.79999999999959,3361.5 L 226.79999999999959,3385.7999999999997 L 226.79999999999959,3402.0" style="stroke:black;fill:none;stroke-width:2;stroke-linecap:round;stroke-linejoin:round;" /><path d="M 226.79999999999959 3408.1 L 224.36999999999958 3401.9999999999995 L 229.2299999999996 3401.9999999999995 Z" style="stroke:black;fill:black;stroke-linecap:butt;stroke-linejoin:miter;" /><path d="M 170.0999999999996,3474.8999999999996 L 170.0999999999996,3410.1 L 283.4999999999996,3410.1 L 283.4999999999996,3539.7 L 170.0999999999996,3539.7 L 170.0999999999996,3474.8999999999996" style="stroke:black;fill:none;stroke-width:2;stroke-linecap:round;stroke-linejoin:round;" /><path d="M 315.8999999999996,3296.7 L 340.1999999999996,3296.7 L 356.3999999999996,3296.7" style="stroke:black;fill:none;stroke-width:2;stroke-linecap:round;stroke-linejoin:round;" /><path d="M 362.4999999999996 3296.7 L 356.3999999999996 3299.1299999999997 L 356.3999999999996 3294.27 Z" style="stroke:black;fill:black;stroke-linecap:butt;stroke-linejoin:miter;" /><path d="M 364.4999999999996,3296.7 L 364.4999999999996,3231.8999999999996 L 477.8999999999996,3231.8999999999996 L 477.8999999999996,3361.5 L 364.4999999999996,3361.5 L 364.4999999999996,3296.7" style="stroke:black;fill:none;stroke-width:2;stroke-linecap:round;stroke-linejoin:round;" /><path d="M 89.09999999999954,3636.8999999999996 L 113.39999999999954,3636.8999999999996 L 129.59999999999954,3636.8999999999996" style="stroke:black;fill:none;stroke-width:2;stroke-linecap:round;stroke-linejoin:round;" /><path d="M 135.69999999999953 3636.8999999999996 L 129.5999999999995 3639.3299999999995 L 129.5999999999995 3634.47 Z" style="stroke:black;fill:black;stroke-linecap:butt;stroke-linejoin:miter;" /><path d="M 226.79999999999953,3701.7 L 226.79999999999953,3726.0 L 226.79999999999953,3742.2" style="stroke:black;fill:none;stroke-width:2;stroke-linecap:round;stroke-linejoin:round;" /><path d="M 226.79999999999953 3748.2999999999997 L 224.36999999999952 3742.1999999999994 L 229.22999999999954 3742.1999999999994 Z" style="stroke:black;fill:black;stroke-linecap:butt;stroke-linejoin:miter;" /><path d="M 170.09999999999954,3815.1 L 170.09999999999954,3750.2999999999997 L 283.49999999999955,3750.2999999999997 L 283.49999999999955,3879.8999999999996 L 170.09999999999954,3879.8999999999996 L 170.09999999999954,3815.1" style="stroke:black;fill:none;stroke-width:2;stroke-linecap:round;stroke-linejoin:round;" /><path d="M 315.8999999999995,3636.8999999999996 L 340.19999999999953,3636.8999999999996 L 356.3999999999995,3636.8999999999996" style="stroke:black;fill:none;stroke-width:2;stroke-linecap:round;stroke-linejoin:round;" /><path d="M 362.49999999999955 3636.8999999999996 L 356.3999999999995 3639.3299999999995 L 356.3999999999995 3634.47 Z" style="stroke:black;fill:black;stroke-linecap:butt;stroke-linejoin:miter;" /><path d="M 364.49999999999955,3636.8999999999996 L 364.49999999999955,3572.1 L 477.8999999999995,3572.1 L 477.8999999999995,3701.7 L 364.49999999999955,3701.7 L 364.49999999999955,3636.8999999999996" style="stroke:black;fill:none;stroke-width:2;stroke-linecap:round;stroke-linejoin:round;" /><path d="M 89.0999999999995,3977.1 L 113.3999999999995,3977.1 L 129.59999999999948,3977.1" style="stroke:black;fill:none;stroke-width:2;stroke-linecap:round;stroke-linejoin:round;" /><path d="M 135.69999999999948 3977.1 L 129.59999999999945 3979.5299999999997 L 129.59999999999945 3974.67 Z" style="stroke:black;fill:black;stroke-linecap:butt;stroke-linejoin:miter;" /><path d="M 226.79999999999947,4041.8999999999996 L 226.79999999999947,4066.2 L 226.79999999999947,4082.3999999999996" style="stroke:black;fill:none;stroke-width:2;stroke-linecap:round;stroke-linejoin:round;" /><path d="M 226.79999999999947 4088.5 L 224.36999999999946 4082.3999999999996 L 229.22999999999948 4082.3999999999996 Z" style="stroke:black;fill:black;stroke-linecap:butt;stroke-linejoin:miter;" /><path d="M 170.09999999999948,4155.3 L 170.09999999999948,4090.5 L 283.4999999999995,4090.5 L 283.4999999999995,4220.099999999999 L 170.09999999999948,4220.099999999999 L 170.09999999999948,4155.3" style="stroke:black;fill:none;stroke-width:2;stroke-linecap:round;stroke-linejoin:round;" /><path d="M 315.89999999999947,3977.1 L 340.1999999999995,3977.1 L 356.39999999999947,3977.1" style="stroke:black;fill:none;stroke-width:2;stroke-linecap:round;stroke-linejoin:round;" /><path d="M 362.4999999999995 3977.1 L 356.39999999999947 3979.5299999999997 L 356.39999999999947 3974.67 Z" style="stroke:black;fill:black;stroke-linecap:butt;stroke-linejoin:miter;" /><path d="M 364.4999999999995,3977.1 L 364.4999999999995,3912.2999999999997 L 477.89999999999947,3912.2999999999997 L 477.89999999999947,4041.8999999999996 L 364.4999999999995,4041.8999999999996 L 364.4999999999995,3977.1" style="stroke:black;fill:none;stroke-width:2;stroke-linecap:round;stroke-linejoin:round;" /><path d="M 89.09999999999947,4317.3 L 113.39999999999947,4317.3 L 129.59999999999948,4317.3" style="stroke:black;fill:none;stroke-width:2;stroke-linecap:round;stroke-linejoin:round;" /><path d="M 135.69999999999948 4317.3 L 129.59999999999945 4319.7300000000005 L 129.59999999999945 4314.87 Z" style="stroke:black;fill:black;stroke-linecap:butt;stroke-linejoin:miter;" /><path d="M 226.79999999999947,4382.099999999999 L 226.79999999999947,4406.4 L 226.79999999999947,4422.599999999999" style="stroke:black;fill:none;stroke-width:2;stroke-linecap:round;stroke-linejoin:round;" /><path d="M 226.79999999999947 4428.7 L 224.36999999999946 4422.599999999999 L 229.22999999999948 4422.599999999999 Z" style="stroke:black;fill:black;stroke-linecap:butt;stroke-linejoin:miter;" /><path d="M 170.09999999999948,4495.5 L 170.09999999999948,4430.7 L 283.4999999999995,4430.7 L 283.4999999999995,4560.3 L 170.09999999999948,4560.3 L 170.09999999999948,4495.5" style="stroke:black;fill:none;stroke-width:2;stroke-linecap:round;stroke-linejoin:round;" /><path d="M 315.89999999999947,4317.3 L 340.1999999999995,4317.3 L 356.39999999999947,4317.3" style="stroke:black;fill:none;stroke-width:2;stroke-linecap:round;stroke-linejoin:round;" /><path d="M 362.4999999999995 4317.3 L 356.39999999999947 4319.7300000000005 L 356.39999999999947 4314.87 Z" style="stroke:black;fill:black;stroke-linecap:butt;stroke-linejoin:miter;" /><path d="M 364.4999999999995,4317.3 L 364.4999999999995,4252.5 L 477.89999999999947,4252.5 L 477.89999999999947,4382.099999999999 L 364.4999999999995,4382.099999999999 L 364.4999999999995,4317.3" style="stroke:black;fill:none;stroke-width:2;stroke-linecap:round;stroke-linejoin:round;" /><path d="M 89.09999999999943,4657.5 L 113.39999999999942,4657.5 L 129.59999999999943,4657.5" style="stroke:black;fill:none;stroke-width:2;stroke-linecap:round;stroke-linejoin:round;" /><path d="M 135.69999999999942 4657.5 L 129.5999999999994 4659.93 L 129.5999999999994 4655.07 Z" style="stroke:black;fill:black;stroke-linecap:butt;stroke-linejoin:miter;" /><path d="M 315.8999999999994,4657.5 L 340.1999999999994,4657.5 L 356.3999999999994,4657.5" style="stroke:black;fill:none;stroke-width:2;stroke-linecap:round;stroke-linejoin:round;" /><path d="M 362.49999999999943 4657.5 L 356.3999999999994 4659.93 L 356.3999999999994 4655.07 Z" style="stroke:black;fill:black;stroke-linecap:butt;stroke-linejoin:miter;" /><path d="M 364.49999999999943,4657.5 L 364.49999999999943,4592.7 L 477.8999999999994,4592.7 L 477.8999999999994,4722.3 L 364.49999999999943,4722.3 L 364.49999999999943,4657.5" style="stroke:black;fill:none;stroke-width:2;stroke-linecap:round;stroke-linejoin:round;" /><text x="0.0" y="12.550000000000002" fill="black" font-size="14" font-family="sans-serif" text-anchor="middle" transform="rotate(0 0.0 18.150000000000002)"><tspan x="0.0" dy="11.200000000000001">Start Login</tspan></text><text x="4.211999999999978" y="269.412" fill="black" font-size="14" font-family="sans-serif" text-anchor="start" transform="rotate(0 4.211999999999978 269.412)"><tspan x="4.211999999999978" dy="11.200000000000001">NO</tspan></text><text x="93.31199999999998" y="184.988" fill="black" font-size="14" font-family="sans-serif" text-anchor="start" transform="rotate(0 93.31199999999998 196.188)"><tspan x="93.31199999999998" dy="11.200000000000001">YES</tspan></text><text x="-1.785535033156841e-14" y="179.39999999999998" fill="black" font-size="14" font-family="sans-serif" text-anchor="middle" transform="rotate(0 -1.785535033156841e-14 200.39999999999998)"><tspan x="-1.785535033156841e-14" dy="14">-</tspan><tspan x="-1.785535033156841e-14" dy="14">Is the user accessing: sa-</tspan><tspan x="-1.785535033156841e-14" dy="14">asure</tspan></text><text x="4.211999999999874" y="966.012" fill="black" font-size="14" font-family="sans-serif" text-anchor="start" transform="rotate(0 4.211999999999874 966.012)"><tspan x="4.211999999999874" dy="11.200000000000001">NO</tspan></text><text x="93.31199999999988" y="881.588" fill="black" font-size="14" font-family="sans-serif" text-anchor="start" transform="rotate(0 93.31199999999988 892.788)"><tspan x="93.31199999999988" dy="11.200000000000001">YES</tspan></text><text x="-1.2201156059905077e-13" y="876.0" fill="black" font-size="14" font-family="sans-serif" text-anchor="middle" transform="rotate(0 -1.2201156059905077e-13 897.0)"><tspan x="-1.2201156059905077e-13" dy="14">-</tspan><tspan x="-1.2201156059905077e-13" dy="14">Is the user accessing: ok-</tspan><tspan x="-1.2201156059905077e-13" dy="14">ta_browser_plugin</tspan></text><text x="4.211999999999835" y="1306.212" fill="black" font-size="14" font-family="sans-serif" text-anchor="start" transform="rotate(0 4.211999999999835 1306.212)"><tspan x="4.211999999999835" dy="11.200000000000001">NO</tspan></text><text x="93.31199999999983" y="1221.7879999999998" fill="black" font-size="14" font-family="sans-serif" text-anchor="start" transform="rotate(0 93.31199999999983 1232.9879999999998)"><tspan x="93.31199999999983" dy="11.200000000000001">YES</tspan></text><text x="-1.6069815298411566e-13" y="1216.1999999999998" fill="black" font-size="14" font-family="sans-serif" text-anchor="middle" transform="rotate(0 -1.6069815298411566e-13 1237.1999999999998)"><tspan x="-1.6069815298411566e-13" dy="14">-</tspan><tspan x="-1.6069815298411566e-13" dy="14">Is the user accessing: ok-</tspan><tspan x="-1.6069815298411566e-13" dy="14">ta_enduser</tspan></text><text x="4.211999999999764" y="1824.6119999999999" fill="black" font-size="14" font-family="sans-serif" text-anchor="start" transform="rotate(0 4.211999999999764 1824.6119999999999)"><tspan x="4.211999999999764" dy="11.200000000000001">NO</tspan></text><text x="93.31199999999976" y="1740.1879999999996" fill="black" font-size="14" font-family="sans-serif" text-anchor="start" transform="rotate(0 93.31199999999976 1751.3879999999997)"><tspan x="93.31199999999976" dy="11.200000000000001">YES</tspan></text><text x="-2.321195543103893e-13" y="1734.6" fill="black" font-size="14" font-family="sans-serif" text-anchor="middle" transform="rotate(0 -2.321195543103893e-13 1755.6)"><tspan x="-2.321195543103893e-13" dy="14">-</tspan><tspan x="-2.321195543103893e-13" dy="14">Is the user accessing: ok-</tspan><tspan x="-2.321195543103893e-13" dy="14">ta_flow_sso</tspan></text><text x="4.211999999999725" y="2164.812" fill="black" font-size="14" font-family="sans-serif" text-anchor="start" transform="rotate(0 4.211999999999725 2164.812)"><tspan x="4.211999999999725" dy="11.200000000000001">NO</tspan></text><text x="93.31199999999971" y="2080.3880000000004" fill="black" font-size="14" font-family="sans-serif" text-anchor="start" transform="rotate(0 93.31199999999971 2091.588)"><tspan x="93.31199999999971" dy="11.200000000000001">YES</tspan></text><text x="-2.708061466954542e-13" y="2074.8" fill="black" font-size="14" font-family="sans-serif" text-anchor="middle" transform="rotate(0 -2.708061466954542e-13 2095.8)"><tspan x="-2.708061466954542e-13" dy="14">-</tspan><tspan x="-2.708061466954542e-13" dy="14">Is the user accessing: fl-</tspan><tspan x="-2.708061466954542e-13" dy="14">ow</tspan></text><text x="4.211999999999687" y="2505.0119999999997" fill="black" font-size="14" font-family="sans-serif" text-anchor="start" transform="rotate(0 4.211999999999687 2505.0119999999997)"><tspan x="4.211999999999687" dy="11.200000000000001">NO</tspan></text><text x="93.31199999999967" y="2420.588" fill="black" font-size="14" font-family="sans-serif" text-anchor="start" transform="rotate(0 93.31199999999967 2431.788)"><tspan x="93.31199999999967" dy="11.200000000000001">YES</tspan></text><text x="-3.0949273908051904e-13" y="2387.0" fill="black" font-size="14" font-family="sans-serif" text-anchor="middle" transform="rotate(0 -3.0949273908051904e-13 2436.0)"><tspan x="-3.0949273908051904e-13" dy="14">-</tspan><tspan x="-3.0949273908051904e-13" dy="14">Is the user accessing: bo-</tspan><tspan x="-3.0949273908051904e-13" dy="14">okmark, oidc_client, lyft-</tspan><tspan x="-3.0949273908051904e-13" dy="14">oietest_awswebworkspaces_-</tspan><tspan x="-3.0949273908051904e-13" dy="14">2, okta_org2org, oidc_cli-</tspan><tspan x="-3.0949273908051904e-13" dy="14">ent, oidc_client, oidc_cl-</tspan><tspan x="-3.0949273908051904e-13" dy="14">ient</tspan></text><text x="4.211999999999648" y="2845.212" fill="black" font-size="14" font-family="sans-serif" text-anchor="start" transform="rotate(0 4.211999999999648 2845.212)"><tspan x="4.211999999999648" dy="11.200000000000001">NO</tspan></text><text x="93.31199999999964" y="2760.7880000000005" fill="black" font-size="14" font-family="sans-serif" text-anchor="start" transform="rotate(0 93.31199999999964 2771.9880000000003)"><tspan x="93.31199999999964" dy="11.200000000000001">YES</tspan></text><text x="-3.4817933146558395e-13" y="2755.2000000000003" fill="black" font-size="14" font-family="sans-serif" text-anchor="middle" transform="rotate(0 -3.4817933146558395e-13 2776.2000000000003)"><tspan x="-3.4817933146558395e-13" dy="14">-</tspan><tspan x="-3.4817933146558395e-13" dy="14">Is the user accessing: bo-</tspan><tspan x="-3.4817933146558395e-13" dy="14">okmark</tspan></text><text x="4.21199999999961" y="3185.412" fill="black" font-size="14" font-family="sans-serif" text-anchor="start" transform="rotate(0 4.21199999999961 3185.412)"><tspan x="4.21199999999961" dy="11.200000000000001">NO</tspan></text><text x="93.3119999999996" y="3100.9880000000003" fill="black" font-size="14" font-family="sans-serif" text-anchor="start" transform="rotate(0 93.3119999999996 3112.188)"><tspan x="93.3119999999996" dy="11.200000000000001">YES</tspan></text><text x="-3.868659238506488e-13" y="3095.4" fill="black" font-size="14" font-family="sans-serif" text-anchor="middle" transform="rotate(0 -3.868659238506488e-13 3116.4)"><tspan x="-3.868659238506488e-13" dy="14">-</tspan><tspan x="-3.868659238506488e-13" dy="14">Is the user accessing: ja-</tspan><tspan x="-3.868659238506488e-13" dy="14">mfsoftwareserver</tspan></text><text x="4.211999999999538" y="3703.812" fill="black" font-size="14" font-family="sans-serif" text-anchor="start" transform="rotate(0 4.211999999999538 3703.812)"><tspan x="4.211999999999538" dy="11.200000000000001">NO</tspan></text><text x="93.31199999999953" y="3619.3880000000004" fill="black" font-size="14" font-family="sans-serif" text-anchor="start" transform="rotate(0 93.31199999999953 3630.588)"><tspan x="93.31199999999953" dy="11.200000000000001">YES</tspan></text><text x="-4.582873251769225e-13" y="3606.8" fill="black" font-size="14" font-family="sans-serif" text-anchor="middle" transform="rotate(0 -4.582873251769225e-13 3634.8)"><tspan x="-4.582873251769225e-13" dy="14">-</tspan><tspan x="-4.582873251769225e-13" dy="14">Is the user accessing: ly-</tspan><tspan x="-4.582873251769225e-13" dy="14">ftoietest_awswebworkspace-</tspan><tspan x="-4.582873251769225e-13" dy="14">s_1</tspan></text><text x="4.211999999999499" y="4044.0119999999997" fill="black" font-size="14" font-family="sans-serif" text-anchor="start" transform="rotate(0 4.211999999999499 4044.0119999999997)"><tspan x="4.211999999999499" dy="11.200000000000001">NO</tspan></text><text x="93.31199999999949" y="3959.588" fill="black" font-size="14" font-family="sans-serif" text-anchor="start" transform="rotate(0 93.31199999999949 3970.788)"><tspan x="93.31199999999949" dy="11.200000000000001">YES</tspan></text><text x="-4.969739175619873e-13" y="3954.0" fill="black" font-size="14" font-family="sans-serif" text-anchor="middle" transform="rotate(0 -4.969739175619873e-13 3975.0)"><tspan x="-4.969739175619873e-13" dy="14">-</tspan><tspan x="-4.969739175619873e-13" dy="14">Is the user accessing: oi-</tspan><tspan x="-4.969739175619873e-13" dy="14">dc_client</tspan></text><text x="4.211999999999461" y="4384.2119999999995" fill="black" font-size="14" font-family="sans-serif" text-anchor="start" transform="rotate(0 4.211999999999461 4384.2119999999995)"><tspan x="4.211999999999461" dy="11.200000000000001">NO</tspan></text><text x="93.31199999999946" y="4299.7880000000005" fill="black" font-size="14" font-family="sans-serif" text-anchor="start" transform="rotate(0 93.31199999999946 4310.988)"><tspan x="93.31199999999946" dy="11.200000000000001">YES</tspan></text><text x="-5.356605099470521e-13" y="4294.2" fill="black" font-size="14" font-family="sans-serif" text-anchor="middle" transform="rotate(0 -5.356605099470521e-13 4315.2)"><tspan x="-5.356605099470521e-13" dy="14">-</tspan><tspan x="-5.356605099470521e-13" dy="14">Is the user accessing: oi-</tspan><tspan x="-5.356605099470521e-13" dy="14">dc_client</tspan></text><text x="4.2119999999994215" y="4724.412" fill="black" font-size="14" font-family="sans-serif" text-anchor="start" transform="rotate(0 4.2119999999994215 4724.412)"><tspan x="4.2119999999994215" dy="11.200000000000001">NO</tspan></text><text x="93.31199999999941" y="4639.988" fill="black" font-size="14" font-family="sans-serif" text-anchor="start" transform="rotate(0 93.31199999999941 4651.188)"><tspan x="93.31199999999941" dy="11.200000000000001">YES</tspan></text><text x="-5.74347102332117e-13" y="4634.4" fill="black" font-size="14" font-family="sans-serif" text-anchor="middle" transform="rotate(0 -5.74347102332117e-13 4655.4)"><tspan x="-5.74347102332117e-13" dy="14">-</tspan><tspan x="-5.74347102332117e-13" dy="14">Is the user accessing: am-</tspan><tspan x="-5.74347102332117e-13" dy="14">azon_aws, amazon_aws_sso</tspan></text><text x="231.012" y="269.412" fill="black" font-size="14" font-family="sans-serif" text-anchor="start" transform="rotate(0 231.012 269.412)"><tspan x="231.012" dy="11.200000000000001">NO</tspan></text><text x="320.11199999999997" y="184.988" fill="black" font-size="14" font-family="sans-serif" text-anchor="start" transform="rotate(0 320.11199999999997 196.188)"><tspan x="320.11199999999997" dy="11.200000000000001">YES</tspan></text><text x="226.79999999999998" y="179.39999999999998" fill="black" font-size="14" font-family="sans-serif" text-anchor="middle" transform="rotate(0 226.79999999999998 200.39999999999998)"><tspan x="226.79999999999998" dy="14">-</tspan><tspan x="226.79999999999998" dy="14">Is user device running AN-</tspan><tspan x="226.79999999999998" dy="14">DROID</tspan></text><text x="231.012" y="447.61199999999997" fill="black" font-size="14" font-family="sans-serif" text-anchor="start" transform="rotate(0 231.012 447.61199999999997)"><tspan x="231.012" dy="11.200000000000001">NO</tspan></text><text x="320.11199999999997" y="363.18800000000005" fill="black" font-size="14" font-family="sans-serif" text-anchor="start" transform="rotate(0 320.11199999999997 374.38800000000003)"><tspan x="320.11199999999997" dy="11.200000000000001">YES</tspan></text><text x="226.79999999999998" y="357.59999999999997" fill="black" font-size="14" font-family="sans-serif" text-anchor="middle" transform="rotate(0 226.79999999999998 378.59999999999997)"><tspan x="226.79999999999998" dy="14">-</tspan><tspan x="226.79999999999998" dy="14">Is user in group testgrou-</tspan><tspan x="226.79999999999998" dy="14">p3</tspan></text><text x="231.012" y="625.812" fill="black" font-size="14" font-family="sans-serif" text-anchor="start" transform="rotate(0 231.012 625.812)"><tspan x="231.012" dy="11.200000000000001">NO</tspan></text><text x="320.11199999999997" y="541.388" fill="black" font-size="14" font-family="sans-serif" text-anchor="start" transform="rotate(0 320.11199999999997 552.5880000000001)"><tspan x="320.11199999999997" dy="11.200000000000001">YES</tspan></text><text x="226.79999999999998" y="551.2" fill="black" font-size="14" font-family="sans-serif" text-anchor="middle" transform="rotate(0 226.79999999999998 556.8000000000001)"><tspan x="226.79999999999998" dy="11.200000000000001">Is the user valid in Okta?</tspan></text><text x="421.2" y="194.79999999999998" fill="black" font-size="14" font-family="sans-serif" text-anchor="middle" transform="rotate(0 421.2 200.39999999999998)"><tspan x="421.2" dy="11.200000000000001">Access is Allowed.</tspan></text><text x="457.81199999999995" y="447.61199999999997" fill="black" font-size="14" font-family="sans-serif" text-anchor="start" transform="rotate(0 457.81199999999995 447.61199999999997)"><tspan x="457.81199999999995" dy="11.200000000000001">NO</tspan></text><text x="546.9119999999999" y="363.188" fill="black" font-size="14" font-family="sans-serif" text-anchor="start" transform="rotate(0 546.9119999999999 374.388)"><tspan x="546.9119999999999" dy="11.200000000000001">YES</tspan></text><text x="453.59999999999997" y="357.59999999999997" fill="black" font-size="14" font-family="sans-serif" text-anchor="middle" transform="rotate(0 453.59999999999997 378.59999999999997)"><tspan x="453.59999999999997" dy="14">-</tspan><tspan x="453.59999999999997" dy="14">Is user in NOT group Temp-</tspan><tspan x="453.59999999999997" dy="14"> MFA Bypass</tspan></text><text x="684.612" y="447.61199999999997" fill="black" font-size="14" font-family="sans-serif" text-anchor="start" transform="rotate(0 684.612 447.61199999999997)"><tspan x="684.612" dy="11.200000000000001">NO</tspan></text><text x="773.712" y="363.188" fill="black" font-size="14" font-family="sans-serif" text-anchor="start" transform="rotate(0 773.712 374.388)"><tspan x="773.712" dy="11.200000000000001">YES</tspan></text><text x="680.4" y="364.59999999999997" fill="black" font-size="14" font-family="sans-serif" text-anchor="middle" transform="rotate(0 680.4 378.59999999999997)"><tspan x="680.4" dy="14">-</tspan><tspan x="680.4" dy="14">Is username test@test.com</tspan></text><text x="911.4119999999999" y="447.61199999999997" fill="black" font-size="14" font-family="sans-serif" text-anchor="start" transform="rotate(0 911.4119999999999 447.61199999999997)"><tspan x="911.4119999999999" dy="11.200000000000001">NO</tspan></text><text x="1000.512" y="363.188" fill="black" font-size="14" font-family="sans-serif" text-anchor="start" transform="rotate(0 1000.512 374.388)"><tspan x="1000.512" dy="11.200000000000001">YES</tspan></text><text x="907.1999999999999" y="357.59999999999997" fill="black" font-size="14" font-family="sans-serif" text-anchor="middle" transform="rotate(0 907.1999999999999 378.59999999999997)"><tspan x="907.1999999999999" dy="14">-</tspan><tspan x="907.1999999999999" dy="14">Is username NOT test@test-</tspan><tspan x="907.1999999999999" dy="14">2.com</tspan></text><text x="1138.212" y="447.61199999999997" fill="black" font-size="14" font-family="sans-serif" text-anchor="start" transform="rotate(0 1138.212 447.61199999999997)"><tspan x="1138.212" dy="11.200000000000001">NO</tspan></text><text x="1227.3120000000001" y="363.188" fill="black" font-size="14" font-family="sans-serif" text-anchor="start" transform="rotate(0 1227.3120000000001 374.388)"><tspan x="1227.3120000000001" dy="11.200000000000001">YES</tspan></text><text x="1134.0" y="364.59999999999997" fill="black" font-size="14" font-family="sans-serif" text-anchor="middle" transform="rotate(0 1134.0 378.59999999999997)"><tspan x="1134.0" dy="14">-</tspan><tspan x="1134.0" dy="14">Is user device registered</tspan></text><text x="1365.012" y="447.61199999999997" fill="black" font-size="14" font-family="sans-serif" text-anchor="start" transform="rotate(0 1365.012 447.61199999999997)"><tspan x="1365.012" dy="11.200000000000001">NO</tspan></text><text x="1454.112" y="363.188" fill="black" font-size="14" font-family="sans-serif" text-anchor="start" transform="rotate(0 1454.112 374.388)"><tspan x="1454.112" dy="11.200000000000001">YES</tspan></text><text x="1360.8" y="364.59999999999997" fill="black" font-size="14" font-family="sans-serif" text-anchor="middle" transform="rotate(0 1360.8 378.59999999999997)"><tspan x="1360.8" dy="14">-</tspan><tspan x="1360.8" dy="14">Is user device managed</tspan></text><text x="1591.8120000000001" y="447.61199999999997" fill="black" font-size="14" font-family="sans-serif" text-anchor="start" transform="rotate(0 1591.8120000000001 447.61199999999997)"><tspan x="1591.8120000000001" dy="11.200000000000001">NO</tspan></text><text x="1680.912" y="363.188" fill="black" font-size="14" font-family="sans-serif" text-anchor="start" transform="rotate(0 1680.912 374.388)"><tspan x="1680.912" dy="11.200000000000001">YES</tspan></text><text x="1587.6" y="350.59999999999997" fill="black" font-size="14" font-family="sans-serif" text-anchor="middle" transform="rotate(0 1587.6 378.59999999999997)"><tspan x="1587.6" dy="14">-</tspan><tspan x="1587.6" dy="14">Is user in Network Range -</tspan><tspan x="1587.6" dy="14">Bad Countries and IPs or -</tspan><tspan x="1587.6" dy="14">Evil-Co Allow List</tspan></text><text x="1818.612" y="447.61199999999997" fill="black" font-size="14" font-family="sans-serif" text-anchor="start" transform="rotate(0 1818.612 447.61199999999997)"><tspan x="1818.612" dy="11.200000000000001">NO</tspan></text><text x="1907.712" y="363.188" fill="black" font-size="14" font-family="sans-serif" text-anchor="start" transform="rotate(0 1907.712 374.388)"><tspan x="1907.712" dy="11.200000000000001">YES</tspan></text><text x="1814.3999999999999" y="364.59999999999997" fill="black" font-size="14" font-family="sans-serif" text-anchor="middle" transform="rotate(0 1814.3999999999999 378.59999999999997)"><tspan x="1814.3999999999999" dy="14">-</tspan><tspan x="1814.3999999999999" dy="14">Is Risk Score LOW</tspan></text><text x="2045.412" y="447.61199999999997" fill="black" font-size="14" font-family="sans-serif" text-anchor="start" transform="rotate(0 2045.412 447.61199999999997)"><tspan x="2045.412" dy="11.200000000000001">NO</tspan></text><text x="2134.5119999999997" y="363.188" fill="black" font-size="14" font-family="sans-serif" text-anchor="start" transform="rotate(0 2134.5119999999997 374.388)"><tspan x="2134.5119999999997" dy="11.200000000000001">YES</tspan></text><text x="2041.1999999999998" y="357.59999999999997" fill="black" font-size="14" font-family="sans-serif" text-anchor="middle" transform="rotate(0 2041.1999999999998 378.59999999999997)"><tspan x="2041.1999999999998" dy="14">-</tspan><tspan x="2041.1999999999998" dy="14">Does user pass custom exp-</tspan><tspan x="2041.1999999999998" dy="14">ression?</tspan></text><text x="2235.6" y="373.0" fill="black" font-size="14" font-family="sans-serif" text-anchor="middle" transform="rotate(0 2235.6 378.59999999999997)"><tspan x="2235.6" dy="11.200000000000001">Access is Allowed.</tspan></text><text x="226.79999999999998" y="729.4" fill="black" font-size="14" font-family="sans-serif" text-anchor="middle" transform="rotate(0 226.79999999999998 735.0)"><tspan x="226.79999999999998" dy="11.200000000000001">Access is denied.</tspan></text><text x="421.2" y="551.2" fill="black" font-size="14" font-family="sans-serif" text-anchor="middle" transform="rotate(0 421.2 556.8000000000001)"><tspan x="421.2" dy="11.200000000000001">Access is Allowed.</tspan></text><text x="231.01199999999986" y="966.012" fill="black" font-size="14" font-family="sans-serif" text-anchor="start" transform="rotate(0 231.01199999999986 966.012)"><tspan x="231.01199999999986" dy="11.200000000000001">NO</tspan></text><text x="320.11199999999985" y="881.588" fill="black" font-size="14" font-family="sans-serif" text-anchor="start" transform="rotate(0 320.11199999999985 892.788)"><tspan x="320.11199999999985" dy="11.200000000000001">YES</tspan></text><text x="226.79999999999987" y="891.4" fill="black" font-size="14" font-family="sans-serif" text-anchor="middle" transform="rotate(0 226.79999999999987 897.0)"><tspan x="226.79999999999987" dy="11.200000000000001">Is the user valid in Okta?</tspan></text><text x="226.79999999999987" y="1069.5999999999997" fill="black" font-size="14" font-family="sans-serif" text-anchor="middle" transform="rotate(0 226.79999999999987 1075.1999999999998)"><tspan x="226.79999999999987" dy="11.200000000000001">Access is denied.</tspan></text><text x="421.1999999999999" y="891.4" fill="black" font-size="14" font-family="sans-serif" text-anchor="middle" transform="rotate(0 421.1999999999999 897.0)"><tspan x="421.1999999999999" dy="11.200000000000001">Access is Allowed.</tspan></text><text x="231.0119999999998" y="1306.212" fill="black" font-size="14" font-family="sans-serif" text-anchor="start" transform="rotate(0 231.0119999999998 1306.212)"><tspan x="231.0119999999998" dy="11.200000000000001">NO</tspan></text><text x="320.11199999999985" y="1221.7879999999998" fill="black" font-size="14" font-family="sans-serif" text-anchor="start" transform="rotate(0 320.11199999999985 1232.9879999999998)"><tspan x="320.11199999999985" dy="11.200000000000001">YES</tspan></text><text x="226.7999999999998" y="1223.1999999999998" fill="black" font-size="14" font-family="sans-serif" text-anchor="middle" transform="rotate(0 226.7999999999998 1237.1999999999998)"><tspan x="226.7999999999998" dy="14">-</tspan><tspan x="226.7999999999998" dy="14">Is username test@test.com</tspan></text><text x="231.0119999999998" y="1484.412" fill="black" font-size="14" font-family="sans-serif" text-anchor="start" transform="rotate(0 231.0119999999998 1484.412)"><tspan x="231.0119999999998" dy="11.200000000000001">NO</tspan></text><text x="320.11199999999985" y="1399.9879999999998" fill="black" font-size="14" font-family="sans-serif" text-anchor="start" transform="rotate(0 320.11199999999985 1411.1879999999999)"><tspan x="320.11199999999985" dy="11.200000000000001">YES</tspan></text><text x="226.7999999999998" y="1409.7999999999997" fill="black" font-size="14" font-family="sans-serif" text-anchor="middle" transform="rotate(0 226.7999999999998 1415.3999999999999)"><tspan x="226.7999999999998" dy="11.200000000000001">Is the user valid in Okta?</tspan></text><text x="421.1999999999998" y="1231.5999999999997" fill="black" font-size="14" font-family="sans-serif" text-anchor="middle" transform="rotate(0 421.1999999999998 1237.1999999999998)"><tspan x="421.1999999999998" dy="11.200000000000001">Access is Allowed.</tspan></text><text x="226.7999999999998" y="1587.9999999999998" fill="black" font-size="14" font-family="sans-serif" text-anchor="middle" transform="rotate(0 226.7999999999998 1593.6)"><tspan x="226.7999999999998" dy="11.200000000000001">Access is denied.</tspan></text><text x="421.1999999999998" y="1409.7999999999997" fill="black" font-size="14" font-family="sans-serif" text-anchor="middle" transform="rotate(0 421.1999999999998 1415.3999999999999)"><tspan x="421.1999999999998" dy="11.200000000000001">Access is Allowed.</tspan></text><text x="231.01199999999974" y="1824.6119999999999" fill="black" font-size="14" font-family="sans-serif" text-anchor="start" transform="rotate(0 231.01199999999974 1824.6119999999999)"><tspan x="231.01199999999974" dy="11.200000000000001">NO</tspan></text><text x="320.11199999999974" y="1740.1879999999996" fill="black" font-size="14" font-family="sans-serif" text-anchor="start" transform="rotate(0 320.11199999999974 1751.3879999999997)"><tspan x="320.11199999999974" dy="11.200000000000001">YES</tspan></text><text x="226.79999999999976" y="1749.9999999999998" fill="black" font-size="14" font-family="sans-serif" text-anchor="middle" transform="rotate(0 226.79999999999976 1755.6)"><tspan x="226.79999999999976" dy="11.200000000000001">Is the user valid in Okta?</tspan></text><text x="226.79999999999976" y="1928.1999999999998" fill="black" font-size="14" font-family="sans-serif" text-anchor="middle" transform="rotate(0 226.79999999999976 1933.8)"><tspan x="226.79999999999976" dy="11.200000000000001">Access is denied.</tspan></text><text x="421.19999999999976" y="1749.9999999999998" fill="black" font-size="14" font-family="sans-serif" text-anchor="middle" transform="rotate(0 421.19999999999976 1755.6)"><tspan x="421.19999999999976" dy="11.200000000000001">Access is Allowed.</tspan></text><text x="231.0119999999997" y="2164.812" fill="black" font-size="14" font-family="sans-serif" text-anchor="start" transform="rotate(0 231.0119999999997 2164.812)"><tspan x="231.0119999999997" dy="11.200000000000001">NO</tspan></text><text x="320.11199999999974" y="2080.3880000000004" fill="black" font-size="14" font-family="sans-serif" text-anchor="start" transform="rotate(0 320.11199999999974 2091.588)"><tspan x="320.11199999999974" dy="11.200000000000001">YES</tspan></text><text x="226.7999999999997" y="2090.2000000000003" fill="black" font-size="14" font-family="sans-serif" text-anchor="middle" transform="rotate(0 226.7999999999997 2095.8)"><tspan x="226.7999999999997" dy="11.200000000000001">Is the user valid in Okta?</tspan></text><text x="226.7999999999997" y="2268.4" fill="black" font-size="14" font-family="sans-serif" text-anchor="middle" transform="rotate(0 226.7999999999997 2274.0)"><tspan x="226.7999999999997" dy="11.200000000000001">Access is denied.</tspan></text><text x="421.1999999999997" y="2090.2000000000003" fill="black" font-size="14" font-family="sans-serif" text-anchor="middle" transform="rotate(0 421.1999999999997 2095.8)"><tspan x="421.1999999999997" dy="11.200000000000001">Access is Allowed.</tspan></text><text x="231.01199999999966" y="2505.0119999999997" fill="black" font-size="14" font-family="sans-serif" text-anchor="start" transform="rotate(0 231.01199999999966 2505.0119999999997)"><tspan x="231.01199999999966" dy="11.200000000000001">NO</tspan></text><text x="320.1119999999997" y="2420.588" fill="black" font-size="14" font-family="sans-serif" text-anchor="start" transform="rotate(0 320.1119999999997 2431.788)"><tspan x="320.1119999999997" dy="11.200000000000001">YES</tspan></text><text x="226.79999999999967" y="2430.4" fill="black" font-size="14" font-family="sans-serif" text-anchor="middle" transform="rotate(0 226.79999999999967 2436.0)"><tspan x="226.79999999999967" dy="11.200000000000001">Is the user valid in Okta?</tspan></text><text x="226.79999999999967" y="2608.6000000000004" fill="black" font-size="14" font-family="sans-serif" text-anchor="middle" transform="rotate(0 226.79999999999967 2614.2000000000003)"><tspan x="226.79999999999967" dy="11.200000000000001">Access is denied.</tspan></text><text x="421.19999999999965" y="2430.4" fill="black" font-size="14" font-family="sans-serif" text-anchor="middle" transform="rotate(0 421.19999999999965 2436.0)"><tspan x="421.19999999999965" dy="11.200000000000001">Access is Allowed.</tspan></text><text x="231.01199999999963" y="2845.212" fill="black" font-size="14" font-family="sans-serif" text-anchor="start" transform="rotate(0 231.01199999999963 2845.212)"><tspan x="231.01199999999963" dy="11.200000000000001">NO</tspan></text><text x="320.1119999999996" y="2760.7880000000005" fill="black" font-size="14" font-family="sans-serif" text-anchor="start" transform="rotate(0 320.1119999999996 2771.9880000000003)"><tspan x="320.1119999999996" dy="11.200000000000001">YES</tspan></text><text x="226.79999999999964" y="2770.6000000000004" fill="black" font-size="14" font-family="sans-serif" text-anchor="middle" transform="rotate(0 226.79999999999964 2776.2000000000003)"><tspan x="226.79999999999964" dy="11.200000000000001">Is the user valid in Okta?</tspan></text><text x="226.79999999999964" y="2948.8" fill="black" font-size="14" font-family="sans-serif" text-anchor="middle" transform="rotate(0 226.79999999999964 2954.4)"><tspan x="226.79999999999964" dy="11.200000000000001">Access is denied.</tspan></text><text x="421.19999999999965" y="2770.6000000000004" fill="black" font-size="14" font-family="sans-serif" text-anchor="middle" transform="rotate(0 421.19999999999965 2776.2000000000003)"><tspan x="421.19999999999965" dy="11.200000000000001">Access is Allowed.</tspan></text><text x="231.01199999999957" y="3185.412" fill="black" font-size="14" font-family="sans-serif" text-anchor="start" transform="rotate(0 231.01199999999957 3185.412)"><tspan x="231.01199999999957" dy="11.200000000000001">NO</tspan></text><text x="320.1119999999996" y="3100.9880000000003" fill="black" font-size="14" font-family="sans-serif" text-anchor="start" transform="rotate(0 320.1119999999996 3112.188)"><tspan x="320.1119999999996" dy="11.200000000000001">YES</tspan></text><text x="226.79999999999959" y="3102.4" fill="black" font-size="14" font-family="sans-serif" text-anchor="middle" transform="rotate(0 226.79999999999959 3116.4)"><tspan x="226.79999999999959" dy="14">-</tspan><tspan x="226.79999999999959" dy="14">Is username test@test.com</tspan></text><text x="231.01199999999957" y="3363.612" fill="black" font-size="14" font-family="sans-serif" text-anchor="start" transform="rotate(0 231.01199999999957 3363.612)"><tspan x="231.01199999999957" dy="11.200000000000001">NO</tspan></text><text x="320.1119999999996" y="3279.1880000000006" fill="black" font-size="14" font-family="sans-serif" text-anchor="start" transform="rotate(0 320.1119999999996 3290.3880000000004)"><tspan x="320.1119999999996" dy="11.200000000000001">YES</tspan></text><text x="226.79999999999959" y="3289.0" fill="black" font-size="14" font-family="sans-serif" text-anchor="middle" transform="rotate(0 226.79999999999959 3294.6)"><tspan x="226.79999999999959" dy="11.200000000000001">Is the user valid in Okta?</tspan></text><text x="457.8119999999996" y="3185.412" fill="black" font-size="14" font-family="sans-serif" text-anchor="start" transform="rotate(0 457.8119999999996 3185.412)"><tspan x="457.8119999999996" dy="11.200000000000001">NO</tspan></text><text x="546.9119999999996" y="3100.9880000000003" fill="black" font-size="14" font-family="sans-serif" text-anchor="start" transform="rotate(0 546.9119999999996 3112.188)"><tspan x="546.9119999999996" dy="11.200000000000001">YES</tspan></text><text x="453.59999999999957" y="3095.4" fill="black" font-size="14" font-family="sans-serif" text-anchor="middle" transform="rotate(0 453.59999999999957 3116.4)"><tspan x="453.59999999999957" dy="14">-</tspan><tspan x="453.59999999999957" dy="14">Is user device running MA-</tspan><tspan x="453.59999999999957" dy="14">COS or WINDOWS</tspan></text><text x="684.6119999999995" y="3185.412" fill="black" font-size="14" font-family="sans-serif" text-anchor="start" transform="rotate(0 684.6119999999995 3185.412)"><tspan x="684.6119999999995" dy="11.200000000000001">NO</tspan></text><text x="773.7119999999994" y="3100.9880000000003" fill="black" font-size="14" font-family="sans-serif" text-anchor="start" transform="rotate(0 773.7119999999994 3112.188)"><tspan x="773.7119999999994" dy="11.200000000000001">YES</tspan></text><text x="680.3999999999995" y="3102.4" fill="black" font-size="14" font-family="sans-serif" text-anchor="middle" transform="rotate(0 680.3999999999995 3116.4)"><tspan x="680.3999999999995" dy="14">-</tspan><tspan x="680.3999999999995" dy="14">Is user NOT in Any Zone</tspan></text><text x="874.7999999999995" y="3110.8" fill="black" font-size="14" font-family="sans-serif" text-anchor="middle" transform="rotate(0 874.7999999999995 3116.4)"><tspan x="874.7999999999995" dy="11.200000000000001">Access is Allowed.</tspan></text><text x="226.79999999999959" y="3467.2000000000003" fill="black" font-size="14" font-family="sans-serif" text-anchor="middle" transform="rotate(0 226.79999999999959 3472.8)"><tspan x="226.79999999999959" dy="11.200000000000001">Access is denied.</tspan></text><text x="421.1999999999996" y="3289.0" fill="black" font-size="14" font-family="sans-serif" text-anchor="middle" transform="rotate(0 421.1999999999996 3294.6)"><tspan x="421.1999999999996" dy="11.200000000000001">Access is Allowed.</tspan></text><text x="231.01199999999952" y="3703.812" fill="black" font-size="14" font-family="sans-serif" text-anchor="start" transform="rotate(0 231.01199999999952 3703.812)"><tspan x="231.01199999999952" dy="11.200000000000001">NO</tspan></text><text x="320.1119999999995" y="3619.3880000000004" fill="black" font-size="14" font-family="sans-serif" text-anchor="start" transform="rotate(0 320.1119999999995 3630.588)"><tspan x="320.1119999999995" dy="11.200000000000001">YES</tspan></text><text x="226.79999999999953" y="3629.2000000000003" fill="black" font-size="14" font-family="sans-serif" text-anchor="middle" transform="rotate(0 226.79999999999953 3634.8)"><tspan x="226.79999999999953" dy="11.200000000000001">Is the user valid in Okta?</tspan></text><text x="226.79999999999953" y="3807.4" fill="black" font-size="14" font-family="sans-serif" text-anchor="middle" transform="rotate(0 226.79999999999953 3813.0)"><tspan x="226.79999999999953" dy="11.200000000000001">Access is denied.</tspan></text><text x="421.19999999999953" y="3629.2000000000003" fill="black" font-size="14" font-family="sans-serif" text-anchor="middle" transform="rotate(0 421.19999999999953 3634.8)"><tspan x="421.19999999999953" dy="11.200000000000001">Access is Allowed.</tspan></text><text x="231.01199999999946" y="4044.0119999999997" fill="black" font-size="14" font-family="sans-serif" text-anchor="start" transform="rotate(0 231.01199999999946 4044.0119999999997)"><tspan x="231.01199999999946" dy="11.200000000000001">NO</tspan></text><text x="320.1119999999995" y="3959.588" fill="black" font-size="14" font-family="sans-serif" text-anchor="start" transform="rotate(0 320.1119999999995 3970.788)"><tspan x="320.1119999999995" dy="11.200000000000001">YES</tspan></text><text x="226.79999999999947" y="3969.4" fill="black" font-size="14" font-family="sans-serif" text-anchor="middle" transform="rotate(0 226.79999999999947 3975.0)"><tspan x="226.79999999999947" dy="11.200000000000001">Is the user valid in Okta?</tspan></text><text x="226.79999999999947" y="4147.6" fill="black" font-size="14" font-family="sans-serif" text-anchor="middle" transform="rotate(0 226.79999999999947 4153.2)"><tspan x="226.79999999999947" dy="11.200000000000001">Access is denied.</tspan></text><text x="421.1999999999995" y="3969.4" fill="black" font-size="14" font-family="sans-serif" text-anchor="middle" transform="rotate(0 421.1999999999995 3975.0)"><tspan x="421.1999999999995" dy="11.200000000000001">Access is Allowed.</tspan></text><text x="231.01199999999946" y="4384.2119999999995" fill="black" font-size="14" font-family="sans-serif" text-anchor="start" transform="rotate(0 231.01199999999946 4384.2119999999995)"><tspan x="231.01199999999946" dy="11.200000000000001">NO</tspan></text><text x="320.1119999999995" y="4299.7880000000005" fill="black" font-size="14" font-family="sans-serif" text-anchor="start" transform="rotate(0 320.1119999999995 4310.988)"><tspan x="320.1119999999995" dy="11.200000000000001">YES</tspan></text><text x="226.79999999999947" y="4309.6" fill="black" font-size="14" font-family="sans-serif" text-anchor="middle" transform="rotate(0 226.79999999999947 4315.2)"><tspan x="226.79999999999947" dy="11.200000000000001">Is the user valid in Okta?</tspan></text><text x="226.79999999999947" y="4487.8" fill="black" font-size="14" font-family="sans-serif" text-anchor="middle" transform="rotate(0 226.79999999999947 4493.4)"><tspan x="226.79999999999947" dy="11.200000000000001">Access is denied.</tspan></text><text x="421.1999999999995" y="4309.6" fill="black" font-size="14" font-family="sans-serif" text-anchor="middle" transform="rotate(0 421.1999999999995 4315.2)"><tspan x="421.1999999999995" dy="11.200000000000001">Access is Allowed.</tspan></text><text x="231.0119999999994" y="4724.412" fill="black" font-size="14" font-family="sans-serif" text-anchor="start" transform="rotate(0 231.0119999999994 4724.412)"><tspan x="231.0119999999994" dy="11.200000000000001">NO</tspan></text><text x="320.1119999999994" y="4639.988" fill="black" font-size="14" font-family="sans-serif" text-anchor="start" transform="rotate(0 320.1119999999994 4651.188)"><tspan x="320.1119999999994" dy="11.200000000000001">YES</tspan></text><text x="226.79999999999941" y="4649.8" fill="black" font-size="14" font-family="sans-serif" text-anchor="middle" transform="rotate(0 226.79999999999941 4655.4)"><tspan x="226.79999999999941" dy="11.200000000000001">Is the user valid in Okta?</tspan></text><text x="421.1999999999994" y="4649.8" fill="black" font-size="14" font-family="sans-serif" text-anchor="middle" transform="rotate(0 421.1999999999994 4655.4)"><tspan x="421.1999999999994" dy="11.200000000000001">Access is Allowed.</tspan></text></svg>