<svg xmlns="http://www.w3.org/2000/svg" xml:lang="en" height="3175.672pt" width="579.2728000000002pt" viewBox="-91.10000000000034 -2.0 579.2728000000002 3175.672"><polygon points="28.349999999999994,40.5 28.671285767654854,40.497451085395966 28.992490653335867,40.489804983259496 29.313533795430775,40.4770636184559 29.634334373045427,40.45923019855565 29.954811626349958,40.43630921302683 30.274884876909695,40.40830643210496 30.594473547995467,40.37522890534039 30.913497184868415,40.3370849598236 31.23187547503402,40.29388419808888 31.549528268460335,40.24563749569698 31.866375597755336,40.19235699849721 32.1823376982983,40.134056119569806 32.4973350283201,40.07074953584926 32.81128828892744,40.002453184429484 33.12411844406589,39.92918425855172 33.43574674041685,39.850961203276206 33.74609472722321,39.76780371083882 34.05508427603895,39.67973271569356 34.36263760039756,39.586770389242496 34.668677275394366,39.48894013425414 34.97312625717778,39.38626657897204 35.27590790234479,39.27877557091464 35.5769459872354,39.16649417036841 35.87616472712163,39.04945064357546 36.17348879528585,38.92767445561777 36.46884334198392,38.80119626299941 36.762154013288196,38.670047905928996 37.05334696980572,38.53426240030407 37.342348905266924,38.39387392939955 37.629087064980055,38.2489178352622 37.91348926414682,38.09943060981354 38.19548390603449,37.94544988566314 38.475,37.787014426634876 38.75196717936147,37.624164118008274 39.02631571911267,37.45693995647766 39.29797655347585,37.28538403983141 39.56688129328872,37.109539556354115 39.832962243221104,36.92945077395411 40.09615241881676,36.74516302901929 40.35638556335647,36.55672271500393 40.613596164537746,36.364177270749344 40.867719470967245,36.16757516854145 41.11869150846158,35.96696590190807 41.366449096152415,35.762399973159305 41.61092986239202,35.55392888067372 41.8520722604549,35.34160510593403 42.08981558403192,35.12548210031505 42.32409998251277,34.90561427162766 42.554866476053,34.68205697042197 42.78205697042197,34.454866476053006 43.005614271627664,34.22409998251277 43.22548210031505,33.98981558403192 43.44160510593403,33.75207226045491 43.653928880673725,33.51092986239202 43.862399973159306,33.26644909615242 44.06696590190807,33.01869150846158 44.26757516854145,32.76771947096726 44.464177270749346,32.51359616453775 44.65672271500393,32.25638556335647 44.84516302901929,31.996152418816763 45.02945077395411,31.732962243221106 45.209539556354116,31.46688129328873 45.385384039831415,31.19797655347585 45.55693995647766,30.926315719112672 45.72416411800828,30.651967179361478 45.88701442663488,30.374999999999996 46.045449885663146,30.095483906034488 46.19943060981354,29.813489264146824 46.34891783526219,29.52908706498006 46.493873929399555,29.242348905266923 46.63426240030408,28.95334696980572 46.770047905929,28.6621540132882 46.901196262999406,28.368843341983922 47.02767445561777,28.07348879528585 47.14945064357547,27.776164727121632 47.266494170368404,27.476945987235403 47.37877557091464,27.175907902344793 47.486266578972035,26.873126257177784 47.58894013425414,26.568677275394364 47.68677038924249,26.262637600397564 47.77973271569357,25.955084276038946 47.86780371083883,25.646094727223204 47.950961203276215,25.33574674041685 48.029184258551716,25.024118444065902 48.10245318442949,24.711288288927445 48.17074953584927,24.39733502832011 48.234056119569814,24.082337698298307 48.29235699849721,23.76637559775534 48.345637495696984,23.44952826846033 48.39388419808888,23.131875475034022 48.4370849598236,22.813497184868424 48.475228905340394,22.494473547995476 48.508306432104966,22.174884876909697 48.53630921302683,21.854811626349964 48.55923019855565,21.53433437304543 48.57706361845591,21.213533795430777 48.5898049832595,20.892490653335866 48.59745108539596,20.571285767654857 48.599999999999994,20.25 48.599999999999994,20.250000000000004 48.59745108539596,19.928714232345143 48.5898049832595,19.60750934666413 48.5770636184559,19.286466204569223 48.55923019855565,18.96566562695457 48.53630921302683,18.645188373650036 48.50830643210496,18.325115123090303 48.475228905340394,18.00552645200453 48.4370849598236,17.686502815131583 48.39388419808888,17.368124524965978 48.34563749569698,17.050471731539666 48.292356998497205,16.733624402244665 48.23405611956981,16.417662301701696 48.17074953584926,16.102664971679893 48.102453184429486,15.788711711072555 48.02918425855171,15.475881555934102 47.95096120327621,15.164253259583148 47.86780371083882,14.853905272776796 47.77973271569356,14.54491572396105 47.68677038924248,14.237362399602437 47.58894013425414,13.93132272460564 47.48626657897203,13.626873742822214 47.37877557091464,13.324092097655212 47.266494170368404,13.023054012764598 47.14945064357546,12.72383527287837 47.02767445561777,12.426511204714147 46.901196262999406,12.131156658016074 46.770047905929,11.837845986711802 46.634262400304074,11.546653030194278 46.49387392939955,11.257651094733077 46.34891783526219,10.970912935019943 46.19943060981353,10.686510735853178 46.04544988566314,10.404516093965512 45.88701442663487,10.125000000000004 45.724164118008275,9.848032820638526 45.556939956477656,9.573684280887328 45.385384039831415,9.302023446524153 45.20953955635411,9.03311870671127 45.02945077395411,8.767037756778896 44.84516302901929,8.50384758118324 44.65672271500393,8.243614436643535 44.464177270749346,7.986403835462252 44.26757516854145,7.732280529032749 44.06696590190807,7.481308491538423 43.8623999731593,7.233550903847584 43.653928880673725,6.989070137607979 43.44160510593403,6.747927739545099 43.22548210031505,6.510184415968076 43.005614271627664,6.275900017487235 42.78205697042197,6.0451335239469985 42.554866476053,5.817943029578029 42.32409998251277,5.594385728372332 42.08981558403192,5.374517899684953 41.8520722604549,5.158394894065972 41.61092986239202,4.946071119326274 41.366449096152415,4.737600026840699 41.11869150846158,4.533034098091928 40.86771947096725,4.332424831458556 40.61359616453774,4.135822729250653 40.35638556335647,3.9432772849960687 40.09615241881676,3.754836970980704 39.832962243221104,3.5705492260458884 39.56688129328872,3.3904604436458814 39.29797655347585,3.214615960168585 39.02631571911267,3.0430600435223383 38.75196717936147,2.8758358819917187 38.474999999999994,2.712985573365119 38.19548390603448,2.55455011433686 37.91348926414682,2.4005693901864675 37.629087064980055,2.251082164737804 37.34234890526692,2.106126070600451 37.05334696980572,1.9657375996959239 36.762154013288196,1.8299520940710068 36.46884334198392,1.698803737000593 36.17348879528585,1.5723255443822304 35.876164727121626,1.4505493564245322 35.5769459872354,1.3335058296315925 35.27590790234479,1.2212244290853598 34.97312625717778,1.1137334210279677 34.668677275394366,1.0110598657458572 34.36263760039756,0.9132296107575081 34.05508427603894,0.8202672843064331 33.7460947272232,0.7321962891611767 33.43574674041685,0.6490387967237891 33.12411844406589,0.5708157414482865 32.81128828892744,0.49754681557051045 32.49733502832011,0.42925046415073537 32.182337698298305,0.3659438804301932 31.866375597755336,0.3076430015027925 31.549528268460328,0.25436250430301743 31.23187547503402,0.20611580191111809 30.91349718486842,0.16291504017639794 30.59447354799547,0.1247710946596094 30.27488487690969,0.09169356789503977 29.954811626349958,0.0636907869731694 29.63433437304543,0.04076980144434419 29.313533795430775,0.0229363815440919 28.992490653335864,0.010195016740507023 28.671285767654854,0.0025489146040348133 28.349999999999994,3.597122599785507e-15 -28.34999999999999,3.597122599785507e-15 -28.671285767654854,0.0025489146040348133 -28.992490653335867,0.010195016740503425 -29.313533795430775,0.0229363815440919 -29.634334373045427,0.04076980144434419 -29.954811626349954,0.0636907869731694 -30.27488487690969,0.09169356789503977 -30.594473547995467,0.1247710946596094 -30.913497184868415,0.16291504017639794 -31.231875475034016,0.20611580191111448 -31.54952826846033,0.25436250430301743 -31.866375597755333,0.30764300150278895 -32.1823376982983,0.3659438804301932 -32.4973350283201,0.42925046415073176 -32.81128828892744,0.49754681557051045 -33.12411844406589,0.5708157414482828 -33.435746740416846,0.6490387967237891 -33.7460947272232,0.7321962891611767 -34.05508427603894,0.8202672843064296 -34.362637600397555,0.9132296107575044 -34.66867727539435,1.0110598657458572 -34.973126257177775,1.1137334210279641 -35.27590790234479,1.221224429085356 -35.5769459872354,1.3335058296315925 -35.87616472712163,1.4505493564245322 -36.17348879528585,1.5723255443822304 -36.46884334198392,1.698803737000593 -36.762154013288196,1.8299520940710068 -37.053346969805716,1.9657375996959203 -37.34234890526691,2.1061260706004474 -37.629087064980055,2.251082164737804 -37.91348926414682,2.4005693901864675 -38.19548390603449,2.5545501143368563 -38.475,2.712985573365119 -38.75196717936147,2.875835881991715 -39.02631571911267,3.043060043522331 -39.29797655347584,3.2146159601685778 -39.56688129328873,3.3904604436458814 -39.8329622432211,3.570549226045885 -40.09615241881676,3.754836970980704 -40.35638556335647,3.943277284996065 -40.613596164537746,4.135822729250651 -40.867719470967245,4.332424831458554 -41.11869150846157,4.533034098091925 -41.366449096152415,4.737600026840692 -41.61092986239201,4.946071119326267 -41.8520722604549,5.158394894065968 -42.08981558403192,5.374517899684951 -42.32409998251277,5.594385728372329 -42.554866476053,5.817943029578027 -42.78205697042196,6.045133523946993 -43.005614271627664,6.275900017487231 -43.22548210031504,6.51018441596807 -43.44160510593403,6.747927739545099 -43.653928880673725,6.989070137607977 -43.862399973159306,7.233550903847578 -44.06696590190807,7.481308491538419 -44.26757516854144,7.732280529032742 -44.46417727074934,7.986403835462247 -44.65672271500393,8.243614436643528 -44.8451630290193,8.503847581183239 -45.0294507739541,8.767037756778887 -45.209539556354116,9.033118706711269 -45.385384039831415,9.30202344652415 -45.55693995647766,9.573684280887322 -45.724164118008275,9.848032820638519 -45.88701442663488,10.124999999999996 -46.045449885663146,10.404516093965512 -46.199430609813525,10.686510735853169 -46.34891783526219,10.97091293501994 -46.49387392939955,11.257651094733074 -46.634262400304074,11.546653030194273 -46.770047905929,11.837845986711796 -46.901196262999406,12.131156658016069 -47.02767445561777,12.426511204714147 -47.14945064357546,12.723835272878363 -47.266494170368404,13.023054012764597 -47.37877557091464,13.3240920976552 -47.486266578972035,13.62687374282221 -47.58894013425414,13.931322724605634 -47.68677038924249,14.23736239960243 -47.77973271569357,14.54491572396105 -47.86780371083882,14.853905272776785 -47.950961203276215,15.164253259583147 -48.029184258551716,15.47588155593409 -48.10245318442949,15.788711711072551 -48.17074953584927,16.102664971679886 -48.23405611956981,16.417662301701693 -48.29235699849721,16.733624402244654 -48.345637495696984,17.05047173153966 -48.39388419808888,17.368124524965978 -48.4370849598236,17.68650281513157 -48.475228905340394,18.005526452004528 -48.508306432104966,18.3251151230903 -48.53630921302683,18.645188373650033 -48.55923019855565,18.965665626954564 -48.57706361845591,19.286466204569216 -48.5898049832595,19.60750934666413 -48.59745108539596,19.928714232345133 -48.599999999999994,20.25 -48.599999999999994,20.250000000000004 -48.59745108539597,20.57128576765486 -48.5898049832595,20.89249065333587 -48.57706361845592,21.21353379543078 -48.55923019855565,21.534334373045436 -48.53630921302683,21.85481162634997 -48.508306432104966,22.174884876909704 -48.475228905340394,22.494473547995476 -48.43708495982361,22.813497184868424 -48.393884198088884,23.131875475034022 -48.34563749569699,23.449528268460334 -48.29235699849722,23.766375597755335 -48.234056119569814,24.08233769829831 -48.17074953584927,24.397335028320118 -48.1024531844295,24.711288288927452 -48.029184258551716,25.024118444065902 -47.95096120327622,25.33574674041685 -47.867803710838835,25.646094727223208 -47.77973271569358,25.95508427603895 -47.686770389242504,26.26263760039757 -47.588940134254145,26.56867727539437 -47.486266578972035,26.87312625717779 -47.37877557091465,27.175907902344797 -47.26649417036841,27.476945987235407 -47.14945064357548,27.776164727121632 -47.02767445561777,28.073488795285854 -46.901196262999406,28.368843341983933 -46.770047905929,28.662154013288202 -46.63426240030408,28.95334696980573 -46.493873929399555,29.242348905266926 -46.3489178352622,29.529087064980065 -46.19943060981354,29.813489264146824 -46.045449885663146,30.09548390603449 -45.887014426634885,30.375000000000007 -45.72416411800829,30.651967179361474 -45.55693995647767,30.92631571911268 -45.385384039831415,31.197976553475854 -45.20953955635412,31.466881293288733 -45.02945077395412,31.73296224322111 -44.845163029019304,31.996152418816763 -44.656722715003944,32.25638556335647 -44.46417727074935,32.51359616453775 -44.26757516854145,32.76771947096726 -44.06696590190808,33.01869150846158 -43.862399973159306,33.26644909615243 -43.653928880673725,33.51092986239202 -43.44160510593404,33.75207226045491 -43.22548210031505,33.98981558403192 -43.00561427162767,34.22409998251277 -42.78205697042197,34.45486647605301 -42.554866476053,34.68205697042198 -42.32409998251277,34.90561427162767 -42.089815584031925,35.12548210031505 -41.852072260454904,35.341605105934036 -41.61092986239203,35.55392888067372 -41.36644909615243,35.762399973159305 -41.11869150846158,35.966965901908075 -40.86771947096725,36.16757516854145 -40.613596164537746,36.36417727074935 -40.35638556335647,36.556722715003936 -40.096152418816764,36.745163029019295 -39.83296224322111,36.929450773954116 -39.56688129328873,37.10953955635412 -39.297976553475856,37.28538403983141 -39.02631571911268,37.45693995647766 -38.75196717936147,37.62416411800829 -38.475,37.78701442663488 -38.19548390603449,37.945449885663145 -37.913489264146826,38.09943060981354 -37.62908706498006,38.2489178352622 -37.34234890526692,38.393873929399554 -37.05334696980573,38.53426240030408 -36.762154013288196,38.670047905928996 -36.468843341983934,38.80119626299941 -36.17348879528585,38.92767445561777 -35.87616472712163,39.04945064357547 -35.576945987235405,39.16649417036841 -35.2759079023448,39.27877557091465 -34.97312625717778,39.38626657897204 -34.668677275394366,39.48894013425415 -34.36263760039756,39.586770389242496 -34.05508427603895,39.679732715693575 -33.74609472722321,39.76780371083883 -33.43574674041685,39.85096120327621 -33.1241184440659,39.92918425855172 -32.81128828892744,40.00245318442949 -32.49733502832011,40.070749535849274 -32.182337698298305,40.13405611956981 -31.86637559775534,40.19235699849721 -31.549528268460335,40.24563749569699 -31.231875475034023,40.29388419808889 -30.913497184868422,40.3370849598236 -30.594473547995474,40.37522890534039 -30.274884876909695,40.408306432104965 -29.954811626349965,40.43630921302683 -29.634334373045434,40.45923019855565 -29.31353379543078,40.47706361845591 -28.99249065333587,40.489804983259496 -28.67128576765486,40.497451085395966 -28.35,40.5 28.349999999999994,40.5 " style="stroke:black;fill:none;stroke-width:2;stroke-linecap:round;stroke-linejoin:round;" /><polygon points="-89.10000000000001,202.5 -1.785535033156841e-14,137.7 89.09999999999998,202.5 -1.785535033156841e-14,267.3 " style="stroke:black;fill:none;stroke-width:2;stroke-linecap:round;stroke-linejoin:round;" /><polygon points="-89.10000000000004,461.7 -4.1662484106992955e-14,396.9 89.09999999999995,461.7 -4.1662484106992955e-14,526.5 " style="stroke:black;fill:none;stroke-width:2;stroke-linecap:round;stroke-linejoin:round;" /><polygon points="-89.10000000000007,720.9 -6.54696178824175e-14,656.1 89.09999999999992,720.9 -6.54696178824175e-14,785.6999999999999 " style="stroke:black;fill:none;stroke-width:2;stroke-linecap:round;stroke-linejoin:round;" /><polygon points="-89.10000000000008,980.0999999999999 -8.927675165784205e-14,915.3 89.09999999999991,980.0999999999999 -8.927675165784205e-14,1044.8999999999999 " style="stroke:black;fill:none;stroke-width:2;stroke-linecap:round;stroke-linejoin:round;" /><polygon points="-89.10000000000011,1239.3 -1.1308388543326659e-13,1174.5 89.09999999999988,1239.3 -1.1308388543326659e-13,1304.1 " style="stroke:black;fill:none;stroke-width:2;stroke-linecap:round;stroke-linejoin:round;" /><polygon points="-89.10000000000016,1676.6999999999998 -1.6962582814989988e-13,1611.8999999999999 89.09999999999982,1676.6999999999998 -1.6962582814989988e-13,1741.5 " style="stroke:black;fill:none;stroke-width:2;stroke-linecap:round;stroke-linejoin:round;" /><polygon points="-89.10000000000025,2292.2999999999997 -2.589025798077419e-13,2227.5 89.09999999999974,2292.2999999999997 -2.589025798077419e-13,2357.1 " style="stroke:black;fill:none;stroke-width:2;stroke-linecap:round;stroke-linejoin:round;" /><polygon points="-89.10000000000034,2907.9 -3.4817933146558395e-13,2843.1 89.09999999999965,2907.9 -3.4817933146558395e-13,2972.7 " style="stroke:black;fill:none;stroke-width:2;stroke-linecap:round;stroke-linejoin:round;" /><polygon points="137.7,202.5 226.79999999999998,137.7 315.9,202.5 226.79999999999998,267.3 " style="stroke:black;fill:none;stroke-width:2;stroke-linecap:round;stroke-linejoin:round;" /><polygon points="137.69999999999993,461.7 226.79999999999993,396.9 315.8999999999999,461.7 226.79999999999993,526.5 " style="stroke:black;fill:none;stroke-width:2;stroke-linecap:round;stroke-linejoin:round;" /><polygon points="137.69999999999993,720.9 226.79999999999993,656.1 315.8999999999999,720.9 226.79999999999993,785.6999999999999 " style="stroke:black;fill:none;stroke-width:2;stroke-linecap:round;stroke-linejoin:round;" /><polygon points="137.6999999999999,980.0999999999999 226.7999999999999,915.3 315.89999999999986,980.0999999999999 226.7999999999999,1044.8999999999999 " style="stroke:black;fill:none;stroke-width:2;stroke-linecap:round;stroke-linejoin:round;" /><polygon points="137.69999999999987,1239.3 226.79999999999987,1174.5 315.89999999999986,1239.3 226.79999999999987,1304.1 " style="stroke:black;fill:none;stroke-width:2;stroke-linecap:round;stroke-linejoin:round;" /><polygon points="137.69999999999987,1417.5 226.79999999999987,1352.7 315.89999999999986,1417.5 226.79999999999987,1482.3 " style="stroke:black;fill:none;stroke-width:2;stroke-linecap:round;stroke-linejoin:round;" /><polygon points="137.69999999999982,1676.6999999999998 226.7999999999998,1611.8999999999999 315.8999999999998,1676.6999999999998 226.7999999999998,1741.5 " style="stroke:black;fill:none;stroke-width:2;stroke-linecap:round;stroke-linejoin:round;" /><polygon points="137.69999999999982,1854.8999999999999 226.7999999999998,1790.1 315.8999999999998,1854.8999999999999 226.7999999999998,1919.6999999999998 " style="stroke:black;fill:none;stroke-width:2;stroke-linecap:round;stroke-linejoin:round;" /><polygon points="137.69999999999982,2033.1 226.7999999999998,1968.3 315.8999999999998,2033.1 226.7999999999998,2097.9 " style="stroke:black;fill:none;stroke-width:2;stroke-linecap:round;stroke-linejoin:round;" /><polygon points="137.69999999999973,2292.2999999999997 226.79999999999973,2227.5 315.89999999999975,2292.2999999999997 226.79999999999973,2357.1 " style="stroke:black;fill:none;stroke-width:2;stroke-linecap:round;stroke-linejoin:round;" /><polygon points="137.69999999999973,2470.5 226.79999999999973,2405.7 315.89999999999975,2470.5 226.79999999999973,2535.2999999999997 " style="stroke:black;fill:none;stroke-width:2;stroke-linecap:round;stroke-linejoin:round;" /><polygon points="137.69999999999973,2648.7 226.79999999999973,2583.9 315.89999999999975,2648.7 226.79999999999973,2713.5 " style="stroke:black;fill:none;stroke-width:2;stroke-linecap:round;stroke-linejoin:round;" /><polygon points="137.69999999999965,2907.9 226.79999999999964,2843.1 315.89999999999964,2907.9 226.79999999999964,2972.7 " style="stroke:black;fill:none;stroke-width:2;stroke-linecap:round;stroke-linejoin:round;" /><polygon points="137.69999999999965,3086.1 226.79999999999964,3021.2999999999997 315.89999999999964,3086.1 226.79999999999964,3150.8999999999996 " style="stroke:black;fill:none;stroke-width:2;stroke-linecap:round;stroke-linejoin:round;" /><path d="M 0.0,40.5 L -8.927675165784204e-15,89.1 L -1.6552770985330332e-14,129.6" style="stroke:black;fill:none;stroke-width:2;stroke-linecap:round;stroke-linejoin:round;" /><path d="M -1.753372580163308e-14 135.7 L -2.4300000000000166 129.59999999999997 L 2.429999999999983 129.59999999999997 Z" style="stroke:black;fill:black;stroke-linecap:butt;stroke-linejoin:miter;" /><path d="M -1.785535033156841e-14,267.3 L -2.975891721928068e-14,332.09999999999997 L -4.035990476075488e-14,388.79999999999995" style="stroke:black;fill:none;stroke-width:2;stroke-linecap:round;stroke-linejoin:round;" /><path d="M -4.134085957705763e-14 394.9 L -2.43000000000004 388.79999999999995 L 2.4299999999999593 388.79999999999995 Z" style="stroke:black;fill:black;stroke-linecap:butt;stroke-linejoin:miter;" /><path d="M -4.1662484106992955e-14,526.5 L -5.3566050994705226e-14,591.3 L -6.416703853617943e-14,648.0" style="stroke:black;fill:none;stroke-width:2;stroke-linecap:round;stroke-linejoin:round;" /><path d="M -6.514799335248217e-14 654.1 L -2.430000000000064 648.0000000000001 L 2.4299999999999353 648.0000000000001 Z" style="stroke:black;fill:black;stroke-linecap:butt;stroke-linejoin:miter;" /><path d="M -6.54696178824175e-14,785.6999999999999 L -7.737318477012976e-14,850.5 L -8.797417231160397e-14,907.1999999999999" style="stroke:black;fill:none;stroke-width:2;stroke-linecap:round;stroke-linejoin:round;" /><path d="M -8.895512712790672e-14 913.3 L -2.430000000000088 907.2 L 2.4299999999999113 907.2 Z" style="stroke:black;fill:black;stroke-linecap:butt;stroke-linejoin:miter;" /><path d="M -8.927675165784205e-14,1044.8999999999999 L -1.0118031854555431e-13,1109.7 L -1.1178130608702851e-13,1166.3999999999999" style="stroke:black;fill:none;stroke-width:2;stroke-linecap:round;stroke-linejoin:round;" /><path d="M -1.1276226090333126e-13 1172.5 L -2.4300000000001116 1166.4 L 2.429999999999888 1166.4 Z" style="stroke:black;fill:black;stroke-linecap:butt;stroke-linejoin:miter;" /><path d="M -1.1308388543326659e-13,1304.1 L -1.4135485679158325e-13,1458.0 L -1.683232488036618e-13,1603.8" style="stroke:black;fill:none;stroke-width:2;stroke-linecap:round;stroke-linejoin:round;" /><path d="M -1.6930420361996455e-13 1609.8999999999999 L -2.430000000000168 1603.8 L 2.4299999999998314 1603.8 Z" style="stroke:black;fill:black;stroke-linecap:butt;stroke-linejoin:miter;" /><path d="M -1.6962582814989988e-13,1741.5 L -2.1426420397882088e-13,1984.5 L -2.5760000046150386e-13,2219.4" style="stroke:black;fill:none;stroke-width:2;stroke-linecap:round;stroke-linejoin:round;" /><path d="M -2.585809552778066e-13 2225.5 L -2.4300000000002577 2219.3999999999996 L 2.4299999999997417 2219.3999999999996 Z" style="stroke:black;fill:black;stroke-linecap:butt;stroke-linejoin:miter;" /><path d="M -2.589025798077419e-13,2357.1 L -3.0354095563666293e-13,2600.1 L -3.4687675211934586e-13,2835.0" style="stroke:black;fill:none;stroke-width:2;stroke-linecap:round;stroke-linejoin:round;" /><path d="M -3.4785770693564865e-13 2841.1 L -2.430000000000347 2834.9999999999995 L 2.4299999999996524 2834.9999999999995 Z" style="stroke:black;fill:black;stroke-linecap:butt;stroke-linejoin:miter;" /><path d="M 89.09999999999998,202.5 L 113.39999999999998,202.5 L 129.6,202.5" style="stroke:black;fill:none;stroke-width:2;stroke-linecap:round;stroke-linejoin:round;" /><path d="M 135.7 202.5 L 129.59999999999997 204.93 L 129.59999999999997 200.07 Z" style="stroke:black;fill:black;stroke-linecap:butt;stroke-linejoin:miter;" /><path d="M 226.79999999999998,267.3 L 7.032769451208091,392.8812745993096" style="stroke:black;fill:none;stroke-width:2;stroke-linecap:round;stroke-linejoin:round;" /><path d="M 1.7364862842488897 395.9077221232863 L 5.827151831000986 390.7714437639472 L 8.238387071415197 394.9911054346721 Z" style="stroke:black;fill:black;stroke-linecap:butt;stroke-linejoin:miter;" /><path d="M 315.9,202.5 L 340.2,202.5 L 356.4,202.5" style="stroke:black;fill:none;stroke-width:2;stroke-linecap:round;stroke-linejoin:round;" /><path d="M 362.5 202.5 L 356.4 204.93 L 356.4 200.07 Z" style="stroke:black;fill:black;stroke-linecap:butt;stroke-linejoin:miter;" /><path d="M 364.5,202.5 L 364.5,137.7 L 477.9,137.7 L 477.9,267.3 L 364.5,267.3 L 364.5,202.5" style="stroke:black;fill:none;stroke-width:2;stroke-linecap:round;stroke-linejoin:round;" /><path d="M 89.09999999999995,461.7 L 113.39999999999995,461.7 L 129.59999999999994,461.7" style="stroke:black;fill:none;stroke-width:2;stroke-linecap:round;stroke-linejoin:round;" /><path d="M 135.69999999999993 461.7 L 129.5999999999999 464.13 L 129.5999999999999 459.27 Z" style="stroke:black;fill:black;stroke-linecap:butt;stroke-linejoin:miter;" /><path d="M 226.79999999999993,526.5 L 7.03276945120806,652.0812745993096" style="stroke:black;fill:none;stroke-width:2;stroke-linecap:round;stroke-linejoin:round;" /><path d="M 1.7364862842488606 655.1077221232864 L 5.827151831000954 649.9714437639473 L 8.238387071415167 654.1911054346722 Z" style="stroke:black;fill:black;stroke-linecap:butt;stroke-linejoin:miter;" /><path d="M 226.79999999999993,526.5 L 7.03276945120806,652.0812745993096" style="stroke:black;fill:none;stroke-width:2;stroke-linecap:round;stroke-linejoin:round;" /><path d="M 1.7364862842488606 655.1077221232864 L 5.827151831000954 649.9714437639473 L 8.238387071415167 654.1911054346722 Z" style="stroke:black;fill:black;stroke-linecap:butt;stroke-linejoin:miter;" /><path d="M 315.8999999999999,461.7 L 340.19999999999993,461.7 L 356.3999999999999,461.7" style="stroke:black;fill:none;stroke-width:2;stroke-linecap:round;stroke-linejoin:round;" /><path d="M 362.49999999999994 461.7 L 356.3999999999999 464.13 L 356.3999999999999 459.27 Z" style="stroke:black;fill:black;stroke-linecap:butt;stroke-linejoin:miter;" /><path d="M 364.49999999999994,461.7 L 364.49999999999994,396.9 L 477.8999999999999,396.9 L 477.8999999999999,526.5 L 364.49999999999994,526.5 L 364.49999999999994,461.7" style="stroke:black;fill:none;stroke-width:2;stroke-linecap:round;stroke-linejoin:round;" /><path d="M 89.09999999999992,720.9 L 113.39999999999992,720.9 L 129.59999999999994,720.9" style="stroke:black;fill:none;stroke-width:2;stroke-linecap:round;stroke-linejoin:round;" /><path d="M 135.69999999999993 720.9 L 129.5999999999999 723.3299999999999 L 129.5999999999999 718.47 Z" style="stroke:black;fill:black;stroke-linecap:butt;stroke-linejoin:miter;" /><path d="M 226.79999999999993,785.6999999999999 L 7.032769451208034,911.2812745993095" style="stroke:black;fill:none;stroke-width:2;stroke-linecap:round;stroke-linejoin:round;" /><path d="M 1.7364862842488322 914.3077221232863 L 5.827151831000928 909.1714437639472 L 8.23838707141514 913.3911054346721 Z" style="stroke:black;fill:black;stroke-linecap:butt;stroke-linejoin:miter;" /><path d="M 226.79999999999993,785.6999999999999 L 7.032769451208034,911.2812745993095" style="stroke:black;fill:none;stroke-width:2;stroke-linecap:round;stroke-linejoin:round;" /><path d="M 1.7364862842488322 914.3077221232863 L 5.827151831000928 909.1714437639472 L 8.23838707141514 913.3911054346721 Z" style="stroke:black;fill:black;stroke-linecap:butt;stroke-linejoin:miter;" /><path d="M 315.8999999999999,720.9 L 340.19999999999993,720.9 L 356.3999999999999,720.9" style="stroke:black;fill:none;stroke-width:2;stroke-linecap:round;stroke-linejoin:round;" /><path d="M 362.49999999999994 720.9 L 356.3999999999999 723.3299999999999 L 356.3999999999999 718.47 Z" style="stroke:black;fill:black;stroke-linecap:butt;stroke-linejoin:miter;" /><path d="M 364.49999999999994,720.9 L 364.49999999999994,656.1 L 477.8999999999999,656.1 L 477.8999999999999,785.6999999999999 L 364.49999999999994,785.6999999999999 L 364.49999999999994,720.9" style="stroke:black;fill:none;stroke-width:2;stroke-linecap:round;stroke-linejoin:round;" /><path d="M 89.09999999999991,980.0999999999999 L 113.3999999999999,980.0999999999999 L 129.5999999999999,980.0999999999999" style="stroke:black;fill:none;stroke-width:2;stroke-linecap:round;stroke-linejoin:round;" /><path d="M 135.6999999999999 980.0999999999999 L 129.59999999999988 982.5299999999999 L 129.59999999999988 977.67 Z" style="stroke:black;fill:black;stroke-linecap:butt;stroke-linejoin:miter;" /><path d="M 226.7999999999999,1044.8999999999999 L 7.032769451208005,1170.4812745993095" style="stroke:black;fill:none;stroke-width:2;stroke-linecap:round;stroke-linejoin:round;" /><path d="M 1.7364862842488036 1173.5077221232864 L 5.827151831000899 1168.3714437639471 L 8.23838707141511 1172.591105434672 Z" style="stroke:black;fill:black;stroke-linecap:butt;stroke-linejoin:miter;" /><path d="M 315.89999999999986,980.0999999999999 L 340.1999999999999,980.0999999999999 L 356.39999999999986,980.0999999999999" style="stroke:black;fill:none;stroke-width:2;stroke-linecap:round;stroke-linejoin:round;" /><path d="M 362.4999999999999 980.0999999999999 L 356.39999999999986 982.5299999999999 L 356.39999999999986 977.67 Z" style="stroke:black;fill:black;stroke-linecap:butt;stroke-linejoin:miter;" /><path d="M 364.4999999999999,980.0999999999999 L 364.4999999999999,915.3 L 477.89999999999986,915.3 L 477.89999999999986,1044.8999999999999 L 364.4999999999999,1044.8999999999999 L 364.4999999999999,980.0999999999999" style="stroke:black;fill:none;stroke-width:2;stroke-linecap:round;stroke-linejoin:round;" /><path d="M 89.09999999999988,1239.3 L 113.39999999999988,1239.3 L 129.59999999999988,1239.3" style="stroke:black;fill:none;stroke-width:2;stroke-linecap:round;stroke-linejoin:round;" /><path d="M 135.69999999999987 1239.3 L 129.59999999999985 1241.73 L 129.59999999999985 1236.87 Z" style="stroke:black;fill:black;stroke-linecap:butt;stroke-linejoin:miter;" /><path d="M 226.79999999999987,1304.1 L 226.79999999999987,1328.3999999999999 L 226.79999999999987,1344.6" style="stroke:black;fill:none;stroke-width:2;stroke-linecap:round;stroke-linejoin:round;" /><path d="M 226.79999999999987 1350.7 L 224.36999999999986 1344.6000000000001 L 229.22999999999988 1344.6000000000001 Z" style="stroke:black;fill:black;stroke-linecap:butt;stroke-linejoin:miter;" /><path d="M 226.79999999999987,1304.1 L 226.79999999999987,1344.6" style="stroke:black;fill:none;stroke-width:2;stroke-linecap:round;stroke-linejoin:round;" /><path d="M 226.79999999999987 1350.7 L 224.36999999999986 1344.6000000000001 L 229.22999999999988 1344.6000000000001 Z" style="stroke:black;fill:black;stroke-linecap:butt;stroke-linejoin:miter;" /><path d="M 315.89999999999986,1239.3 L 340.1999999999999,1239.3 L 356.39999999999986,1239.3" style="stroke:black;fill:none;stroke-width:2;stroke-linecap:round;stroke-linejoin:round;" /><path d="M 362.4999999999999 1239.3 L 356.39999999999986 1241.73 L 356.39999999999986 1236.87 Z" style="stroke:black;fill:black;stroke-linecap:butt;stroke-linejoin:miter;" /><path d="M 364.4999999999999,1239.3 L 364.4999999999999,1174.5 L 477.89999999999986,1174.5 L 477.89999999999986,1304.1 L 364.4999999999999,1304.1 L 364.4999999999999,1239.3" style="stroke:black;fill:none;stroke-width:2;stroke-linecap:round;stroke-linejoin:round;" /><path d="M 226.79999999999987,1482.3 L 7.0327694512079475,1607.8812745993096" style="stroke:black;fill:none;stroke-width:2;stroke-linecap:round;stroke-linejoin:round;" /><path d="M 1.7364862842487458 1610.9077221232862 L 5.827151831000842 1605.771443763947 L 8.238387071415053 1609.991105434672 Z" style="stroke:black;fill:black;stroke-linecap:butt;stroke-linejoin:miter;" /><path d="M 315.89999999999986,1417.5 L 340.1999999999999,1417.5 L 356.39999999999986,1417.5" style="stroke:black;fill:none;stroke-width:2;stroke-linecap:round;stroke-linejoin:round;" /><path d="M 362.4999999999999 1417.5 L 356.39999999999986 1419.93 L 356.39999999999986 1415.07 Z" style="stroke:black;fill:black;stroke-linecap:butt;stroke-linejoin:miter;" /><path d="M 364.4999999999999,1417.5 L 364.4999999999999,1352.7 L 477.89999999999986,1352.7 L 477.89999999999986,1482.3 L 364.4999999999999,1482.3 L 364.4999999999999,1417.5" style="stroke:black;fill:none;stroke-width:2;stroke-linecap:round;stroke-linejoin:round;" /><path d="M 89.09999999999982,1676.6999999999998 L 113.39999999999982,1676.6999999999998 L 129.59999999999982,1676.6999999999998" style="stroke:black;fill:none;stroke-width:2;stroke-linecap:round;stroke-linejoin:round;" /><path d="M 135.69999999999982 1676.6999999999998 L 129.5999999999998 1679.1299999999999 L 129.5999999999998 1674.2699999999998 Z" style="stroke:black;fill:black;stroke-linecap:butt;stroke-linejoin:miter;" /><path d="M 226.7999999999998,1741.5 L 226.7999999999998,1765.8 L 226.7999999999998,1782.0" style="stroke:black;fill:none;stroke-width:2;stroke-linecap:round;stroke-linejoin:round;" /><path d="M 226.7999999999998 1788.1 L 224.3699999999998 1782.0 L 229.22999999999982 1782.0 Z" style="stroke:black;fill:black;stroke-linecap:butt;stroke-linejoin:miter;" /><path d="M 226.7999999999998,1919.6999999999998 L 226.7999999999998,1944.0 L 226.7999999999998,1960.1999999999998" style="stroke:black;fill:none;stroke-width:2;stroke-linecap:round;stroke-linejoin:round;" /><path d="M 226.7999999999998 1966.3 L 224.3699999999998 1960.2 L 229.22999999999982 1960.2 Z" style="stroke:black;fill:black;stroke-linecap:butt;stroke-linejoin:miter;" /><path d="M 226.7999999999998,1741.5 L 226.7999999999998,1782.0" style="stroke:black;fill:none;stroke-width:2;stroke-linecap:round;stroke-linejoin:round;" /><path d="M 226.7999999999998 1788.1 L 224.3699999999998 1782.0 L 229.22999999999982 1782.0 Z" style="stroke:black;fill:black;stroke-linecap:butt;stroke-linejoin:miter;" /><path d="M 315.8999999999998,1676.6999999999998 L 340.1999999999998,1676.6999999999998 L 356.3999999999998,1676.6999999999998" style="stroke:black;fill:none;stroke-width:2;stroke-linecap:round;stroke-linejoin:round;" /><path d="M 362.49999999999983 1676.6999999999998 L 356.3999999999998 1679.1299999999999 L 356.3999999999998 1674.2699999999998 Z" style="stroke:black;fill:black;stroke-linecap:butt;stroke-linejoin:miter;" /><path d="M 364.49999999999983,1676.6999999999998 L 364.49999999999983,1611.8999999999999 L 477.8999999999998,1611.8999999999999 L 477.8999999999998,1741.5 L 364.49999999999983,1741.5 L 364.49999999999983,1676.6999999999998" style="stroke:black;fill:none;stroke-width:2;stroke-linecap:round;stroke-linejoin:round;" /><path d="M 315.8999999999998,1854.8999999999999 L 340.1999999999998,1854.8999999999999 L 356.3999999999998,1854.8999999999999" style="stroke:black;fill:none;stroke-width:2;stroke-linecap:round;stroke-linejoin:round;" /><path d="M 362.49999999999983 1854.8999999999999 L 356.3999999999998 1857.33 L 356.3999999999998 1852.4699999999998 Z" style="stroke:black;fill:black;stroke-linecap:butt;stroke-linejoin:miter;" /><path d="M 364.49999999999983,1854.8999999999999 L 364.49999999999983,1790.1 L 477.8999999999998,1790.1 L 477.8999999999998,1919.6999999999998 L 364.49999999999983,1919.6999999999998 L 364.49999999999983,1854.8999999999999" style="stroke:black;fill:none;stroke-width:2;stroke-linecap:round;stroke-linejoin:round;" /><path d="M 226.7999999999998,2097.9 L 7.032769451207861,2223.48127459931" style="stroke:black;fill:none;stroke-width:2;stroke-linecap:round;stroke-linejoin:round;" /><path d="M 1.7364862842486597 2226.5077221232864 L 5.827151831000755 2221.371443763947 L 8.238387071414966 2225.591105434672 Z" style="stroke:black;fill:black;stroke-linecap:butt;stroke-linejoin:miter;" /><path d="M 315.8999999999998,2033.1 L 340.1999999999998,2033.1 L 356.3999999999998,2033.1" style="stroke:black;fill:none;stroke-width:2;stroke-linecap:round;stroke-linejoin:round;" /><path d="M 362.49999999999983 2033.1 L 356.3999999999998 2035.53 L 356.3999999999998 2030.6699999999998 Z" style="stroke:black;fill:black;stroke-linecap:butt;stroke-linejoin:miter;" /><path d="M 364.49999999999983,2033.1 L 364.49999999999983,1968.3 L 477.8999999999998,1968.3 L 477.8999999999998,2097.9 L 364.49999999999983,2097.9 L 364.49999999999983,2033.1" style="stroke:black;fill:none;stroke-width:2;stroke-linecap:round;stroke-linejoin:round;" /><path d="M 89.09999999999974,2292.2999999999997 L 113.39999999999974,2292.2999999999997 L 129.59999999999974,2292.2999999999997" style="stroke:black;fill:none;stroke-width:2;stroke-linecap:round;stroke-linejoin:round;" /><path d="M 135.69999999999973 2292.2999999999997 L 129.5999999999997 2294.7299999999996 L 129.5999999999997 2289.87 Z" style="stroke:black;fill:black;stroke-linecap:butt;stroke-linejoin:miter;" /><path d="M 226.79999999999973,2357.1 L 226.79999999999973,2381.4 L 226.79999999999973,2397.6" style="stroke:black;fill:none;stroke-width:2;stroke-linecap:round;stroke-linejoin:round;" /><path d="M 226.79999999999973 2403.7 L 224.36999999999972 2397.5999999999995 L 229.22999999999973 2397.5999999999995 Z" style="stroke:black;fill:black;stroke-linecap:butt;stroke-linejoin:miter;" /><path d="M 226.79999999999973,2535.2999999999997 L 226.79999999999973,2559.6 L 226.79999999999973,2575.7999999999997" style="stroke:black;fill:none;stroke-width:2;stroke-linecap:round;stroke-linejoin:round;" /><path d="M 226.79999999999973 2581.9 L 224.36999999999972 2575.7999999999997 L 229.22999999999973 2575.7999999999997 Z" style="stroke:black;fill:black;stroke-linecap:butt;stroke-linejoin:miter;" /><path d="M 226.79999999999973,2357.1 L 226.79999999999973,2397.6" style="stroke:black;fill:none;stroke-width:2;stroke-linecap:round;stroke-linejoin:round;" /><path d="M 226.79999999999973 2403.7 L 224.36999999999972 2397.5999999999995 L 229.22999999999973 2397.5999999999995 Z" style="stroke:black;fill:black;stroke-linecap:butt;stroke-linejoin:miter;" /><path d="M 315.89999999999975,2292.2999999999997 L 340.19999999999976,2292.2999999999997 L 356.39999999999975,2292.2999999999997" style="stroke:black;fill:none;stroke-width:2;stroke-linecap:round;stroke-linejoin:round;" /><path d="M 362.4999999999998 2292.2999999999997 L 356.39999999999975 2294.7299999999996 L 356.39999999999975 2289.87 Z" style="stroke:black;fill:black;stroke-linecap:butt;stroke-linejoin:miter;" /><path d="M 364.4999999999998,2292.2999999999997 L 364.4999999999998,2227.5 L 477.89999999999975,2227.5 L 477.89999999999975,2357.1 L 364.4999999999998,2357.1 L 364.4999999999998,2292.2999999999997" style="stroke:black;fill:none;stroke-width:2;stroke-linecap:round;stroke-linejoin:round;" /><path d="M 315.89999999999975,2470.5 L 340.19999999999976,2470.5 L 356.39999999999975,2470.5" style="stroke:black;fill:none;stroke-width:2;stroke-linecap:round;stroke-linejoin:round;" /><path d="M 362.4999999999998 2470.5 L 356.39999999999975 2472.93 L 356.39999999999975 2468.07 Z" style="stroke:black;fill:black;stroke-linecap:butt;stroke-linejoin:miter;" /><path d="M 364.4999999999998,2470.5 L 364.4999999999998,2405.7 L 477.89999999999975,2405.7 L 477.89999999999975,2535.2999999999997 L 364.4999999999998,2535.2999999999997 L 364.4999999999998,2470.5" style="stroke:black;fill:none;stroke-width:2;stroke-linecap:round;stroke-linejoin:round;" /><path d="M 226.79999999999973,2713.5 L 7.032769451207774,2839.08127459931" style="stroke:black;fill:none;stroke-width:2;stroke-linecap:round;stroke-linejoin:round;" /><path d="M 1.7364862842485733 2842.1077221232863 L 5.827151831000669 2836.971443763947 L 8.23838707141488 2841.191105434672 Z" style="stroke:black;fill:black;stroke-linecap:butt;stroke-linejoin:miter;" /><path d="M 315.89999999999975,2648.7 L 340.19999999999976,2648.7 L 356.39999999999975,2648.7" style="stroke:black;fill:none;stroke-width:2;stroke-linecap:round;stroke-linejoin:round;" /><path d="M 362.4999999999998 2648.7 L 356.39999999999975 2651.1299999999997 L 356.39999999999975 2646.27 Z" style="stroke:black;fill:black;stroke-linecap:butt;stroke-linejoin:miter;" /><path d="M 364.4999999999998,2648.7 L 364.4999999999998,2583.9 L 477.89999999999975,2583.9 L 477.89999999999975,2713.5 L 364.4999999999998,2713.5 L 364.4999999999998,2648.7" style="stroke:black;fill:none;stroke-width:2;stroke-linecap:round;stroke-linejoin:round;" /><path d="M 89.09999999999965,2907.9 L 113.39999999999965,2907.9 L 129.59999999999965,2907.9" style="stroke:black;fill:none;stroke-width:2;stroke-linecap:round;stroke-linejoin:round;" /><path d="M 135.69999999999965 2907.9 L 129.59999999999962 2910.33 L 129.59999999999962 2905.4700000000003 Z" style="stroke:black;fill:black;stroke-linecap:butt;stroke-linejoin:miter;" /><path d="M 226.79999999999964,2972.7 L 226.79999999999964,2997.0 L 226.79999999999964,3013.2" style="stroke:black;fill:none;stroke-width:2;stroke-linecap:round;stroke-linejoin:round;" /><path d="M 226.79999999999964 3019.2999999999997 L 224.36999999999964 3013.1999999999994 L 229.22999999999965 3013.1999999999994 Z" style="stroke:black;fill:black;stroke-linecap:butt;stroke-linejoin:miter;" /><path d="M 315.89999999999964,2907.9 L 340.19999999999965,2907.9 L 356.39999999999964,2907.9" style="stroke:black;fill:none;stroke-width:2;stroke-linecap:round;stroke-linejoin:round;" /><path d="M 362.49999999999966 2907.9 L 356.39999999999964 2910.33 L 356.39999999999964 2905.4700000000003 Z" style="stroke:black;fill:black;stroke-linecap:butt;stroke-linejoin:miter;" /><path d="M 364.49999999999966,2907.9 L 364.49999999999966,2843.1 L 477.89999999999964,2843.1 L 477.89999999999964,2972.7 L 364.49999999999966,2972.7 L 364.49999999999966,2907.9" style="stroke:black;fill:none;stroke-width:2;stroke-linecap:round;stroke-linejoin:round;" /><path d="M 315.89999999999964,3086.1 L 340.19999999999965,3086.1 L 356.39999999999964,3086.1" style="stroke:black;fill:none;stroke-width:2;stroke-linecap:round;stroke-linejoin:round;" /><path d="M 362.49999999999966 3086.1 L 356.39999999999964 3088.5299999999997 L 356.39999999999964 3083.67 Z" style="stroke:black;fill:black;stroke-linecap:butt;stroke-linejoin:miter;" /><path d="M 364.49999999999966,3086.1 L 364.49999999999966,3021.2999999999997 L 477.89999999999964,3021.2999999999997 L 477.89999999999964,3150.8999999999996 L 364.49999999999966,3150.8999999999996 L 364.49999999999966,3086.1" style="stroke:black;fill:none;stroke-width:2;stroke-linecap:round;stroke-linejoin:round;" /><path d="M -3.4817933146558395e-13,2972.7 L -3.5264316904847605e-13,2997.0 L -3.5580442728513005e-13,3013.2" style="stroke:black;fill:none;stroke-width:2;stroke-linecap:round;stroke-linejoin:round;" /><path d="M -3.5678538210143284e-13 3019.2999999999997 L -2.430000000000356 3013.1999999999994 L 2.4299999999996436 3013.1999999999994 Z" style="stroke:black;fill:black;stroke-linecap:butt;stroke-linejoin:miter;" /><path d="M -56.70000000000036,3086.1 L -56.70000000000036,3021.2999999999997 L 56.69999999999964,3021.2999999999997 L 56.69999999999964,3150.8999999999996 L -56.70000000000036,3150.8999999999996 L -56.70000000000036,3086.1" style="stroke:black;fill:none;stroke-width:2;stroke-linecap:round;stroke-linejoin:round;" /><text x="0.0" y="12.550000000000002" fill="black" font-size="14" font-family="sans-serif" text-anchor="middle" transform="rotate(0 0.0 18.150000000000002)"><tspan x="0.0" dy="11.200000000000001">Start Login</tspan></text><text x="4.211999999999978" y="269.412" fill="black" font-size="14" font-family="sans-serif" text-anchor="start" transform="rotate(0 4.211999999999978 269.412)"><tspan x="4.211999999999978" dy="11.200000000000001">NO</tspan></text><text x="93.31199999999998" y="184.988" fill="black" font-size="14" font-family="sans-serif" text-anchor="start" transform="rotate(0 93.31199999999998 196.188)"><tspan x="93.31199999999998" dy="11.200000000000001">YES</tspan></text><text x="-1.785535033156841e-14" y="179.39999999999998" fill="black" font-size="14" font-family="sans-serif" text-anchor="middle" transform="rotate(0 -1.785535033156841e-14 200.39999999999998)"><tspan x="-1.785535033156841e-14" dy="14">-</tspan><tspan x="-1.785535033156841e-14" dy="14">Is user in group Emergenc-</tspan><tspan x="-1.785535033156841e-14" dy="14">y Block?</tspan></text><text x="4.211999999999955" y="528.612" fill="black" font-size="14" font-family="sans-serif" text-anchor="start" transform="rotate(0 4.211999999999955 528.612)"><tspan x="4.211999999999955" dy="11.200000000000001">NO</tspan></text><text x="93.31199999999995" y="444.18800000000005" fill="black" font-size="14" font-family="sans-serif" text-anchor="start" transform="rotate(0 93.31199999999995 455.38800000000003)"><tspan x="93.31199999999995" dy="11.200000000000001">YES</tspan></text><text x="-4.1662484106992955e-14" y="438.59999999999997" fill="black" font-size="14" font-family="sans-serif" text-anchor="middle" transform="rotate(0 -4.1662484106992955e-14 459.59999999999997)"><tspan x="-4.1662484106992955e-14" dy="14">-</tspan><tspan x="-4.1662484106992955e-14" dy="14">Is user in group Restrict-</tspan><tspan x="-4.1662484106992955e-14" dy="14">ed Country Exception?</tspan></text><text x="4.2119999999999305" y="787.812" fill="black" font-size="14" font-family="sans-serif" text-anchor="start" transform="rotate(0 4.2119999999999305 787.812)"><tspan x="4.2119999999999305" dy="11.200000000000001">NO</tspan></text><text x="93.31199999999993" y="703.388" fill="black" font-size="14" font-family="sans-serif" text-anchor="start" transform="rotate(0 93.31199999999993 714.5880000000001)"><tspan x="93.31199999999993" dy="11.200000000000001">YES</tspan></text><text x="-6.54696178824175e-14" y="713.2" fill="black" font-size="14" font-family="sans-serif" text-anchor="middle" transform="rotate(0 -6.54696178824175e-14 718.8000000000001)"><tspan x="-6.54696178824175e-14" dy="11.200000000000001">Is the user enrolled in Okta?</tspan></text><text x="4.211999999999907" y="1047.012" fill="black" font-size="14" font-family="sans-serif" text-anchor="start" transform="rotate(0 4.211999999999907 1047.012)"><tspan x="4.211999999999907" dy="11.200000000000001">NO</tspan></text><text x="93.31199999999991" y="962.588" fill="black" font-size="14" font-family="sans-serif" text-anchor="start" transform="rotate(0 93.31199999999991 973.788)"><tspan x="93.31199999999991" dy="11.200000000000001">YES</tspan></text><text x="-8.927675165784205e-14" y="957.0" fill="black" font-size="14" font-family="sans-serif" text-anchor="middle" transform="rotate(0 -8.927675165784205e-14 978.0)"><tspan x="-8.927675165784205e-14" dy="14">-</tspan><tspan x="-8.927675165784205e-14" dy="14">Is user in group Temp MFA-</tspan><tspan x="-8.927675165784205e-14" dy="14"> Bypass?</tspan></text><text x="4.211999999999883" y="1306.212" fill="black" font-size="14" font-family="sans-serif" text-anchor="start" transform="rotate(0 4.211999999999883 1306.212)"><tspan x="4.211999999999883" dy="11.200000000000001">NO</tspan></text><text x="93.31199999999988" y="1221.7879999999998" fill="black" font-size="14" font-family="sans-serif" text-anchor="start" transform="rotate(0 93.31199999999988 1232.9879999999998)"><tspan x="93.31199999999988" dy="11.200000000000001">YES</tspan></text><text x="-1.1308388543326659e-13" y="1216.1999999999998" fill="black" font-size="14" font-family="sans-serif" text-anchor="middle" transform="rotate(0 -1.1308388543326659e-13 1237.1999999999998)"><tspan x="-1.1308388543326659e-13" dy="14">-</tspan><tspan x="-1.1308388543326659e-13" dy="14">Is user in group Evil Co -</tspan><tspan x="-1.1308388543326659e-13" dy="14">Contractors?</tspan></text><text x="4.2119999999998265" y="1743.6119999999999" fill="black" font-size="14" font-family="sans-serif" text-anchor="start" transform="rotate(0 4.2119999999998265 1743.6119999999999)"><tspan x="4.2119999999998265" dy="11.200000000000001">NO</tspan></text><text x="93.31199999999981" y="1659.1879999999996" fill="black" font-size="14" font-family="sans-serif" text-anchor="start" transform="rotate(0 93.31199999999981 1670.3879999999997)"><tspan x="93.31199999999981" dy="11.200000000000001">YES</tspan></text><text x="-1.6962582814989988e-13" y="1653.6" fill="black" font-size="14" font-family="sans-serif" text-anchor="middle" transform="rotate(0 -1.6962582814989988e-13 1674.6)"><tspan x="-1.6962582814989988e-13" dy="14">-</tspan><tspan x="-1.6962582814989988e-13" dy="14">Is user in group Administ-</tspan><tspan x="-1.6962582814989988e-13" dy="14">rators?</tspan></text><text x="4.211999999999738" y="2359.212" fill="black" font-size="14" font-family="sans-serif" text-anchor="start" transform="rotate(0 4.211999999999738 2359.212)"><tspan x="4.211999999999738" dy="11.200000000000001">NO</tspan></text><text x="93.31199999999973" y="2274.7880000000005" fill="black" font-size="14" font-family="sans-serif" text-anchor="start" transform="rotate(0 93.31199999999973 2285.9880000000003)"><tspan x="93.31199999999973" dy="11.200000000000001">YES</tspan></text><text x="-2.589025798077419e-13" y="2284.6000000000004" fill="black" font-size="14" font-family="sans-serif" text-anchor="middle" transform="rotate(0 -2.589025798077419e-13 2290.2000000000003)"><tspan x="-2.589025798077419e-13" dy="11.200000000000001">Is the user enrolled in Okta?</tspan></text><text x="4.211999999999648" y="2974.812" fill="black" font-size="14" font-family="sans-serif" text-anchor="start" transform="rotate(0 4.211999999999648 2974.812)"><tspan x="4.211999999999648" dy="11.200000000000001">NO</tspan></text><text x="93.31199999999964" y="2890.3880000000004" fill="black" font-size="14" font-family="sans-serif" text-anchor="start" transform="rotate(0 93.31199999999964 2901.588)"><tspan x="93.31199999999964" dy="11.200000000000001">YES</tspan></text><text x="-3.4817933146558395e-13" y="2900.2000000000003" fill="black" font-size="14" font-family="sans-serif" text-anchor="middle" transform="rotate(0 -3.4817933146558395e-13 2905.8)"><tspan x="-3.4817933146558395e-13" dy="11.200000000000001">Is the user enrolled in Okta?</tspan></text><text x="231.012" y="269.412" fill="black" font-size="14" font-family="sans-serif" text-anchor="start" transform="rotate(0 231.012 269.412)"><tspan x="231.012" dy="11.200000000000001">NO</tspan></text><text x="320.11199999999997" y="184.988" fill="black" font-size="14" font-family="sans-serif" text-anchor="start" transform="rotate(0 320.11199999999997 196.188)"><tspan x="320.11199999999997" dy="11.200000000000001">YES</tspan></text><text x="226.79999999999998" y="194.79999999999998" fill="black" font-size="14" font-family="sans-serif" text-anchor="middle" transform="rotate(0 226.79999999999998 200.39999999999998)"><tspan x="226.79999999999998" dy="11.200000000000001">Is the user valid in Okta?</tspan></text><text x="421.2" y="194.79999999999998" fill="black" font-size="14" font-family="sans-serif" text-anchor="middle" transform="rotate(0 421.2 200.39999999999998)"><tspan x="421.2" dy="11.200000000000001">Access is denied.</tspan></text><text x="231.01199999999992" y="528.612" fill="black" font-size="14" font-family="sans-serif" text-anchor="start" transform="rotate(0 231.01199999999992 528.612)"><tspan x="231.01199999999992" dy="11.200000000000001">NO</tspan></text><text x="320.11199999999997" y="444.188" fill="black" font-size="14" font-family="sans-serif" text-anchor="start" transform="rotate(0 320.11199999999997 455.388)"><tspan x="320.11199999999997" dy="11.200000000000001">YES</tspan></text><text x="226.79999999999993" y="438.59999999999997" fill="black" font-size="14" font-family="sans-serif" text-anchor="middle" transform="rotate(0 226.79999999999993 459.59999999999997)"><tspan x="226.79999999999993" dy="14">-</tspan><tspan x="226.79999999999993" dy="14">Is user in Network Range -</tspan><tspan x="226.79999999999993" dy="14">Bad Countries and IPs</tspan></text><text x="421.19999999999993" y="454.0" fill="black" font-size="14" font-family="sans-serif" text-anchor="middle" transform="rotate(0 421.19999999999993 459.59999999999997)"><tspan x="421.19999999999993" dy="11.200000000000001">Access is Allowed.</tspan></text><text x="231.01199999999992" y="787.812" fill="black" font-size="14" font-family="sans-serif" text-anchor="start" transform="rotate(0 231.01199999999992 787.812)"><tspan x="231.01199999999992" dy="11.200000000000001">NO</tspan></text><text x="320.11199999999997" y="703.388" fill="black" font-size="14" font-family="sans-serif" text-anchor="start" transform="rotate(0 320.11199999999997 714.5880000000001)"><tspan x="320.11199999999997" dy="11.200000000000001">YES</tspan></text><text x="226.79999999999993" y="697.8000000000001" fill="black" font-size="14" font-family="sans-serif" text-anchor="middle" transform="rotate(0 226.79999999999993 718.8000000000001)"><tspan x="226.79999999999993" dy="14">-</tspan><tspan x="226.79999999999993" dy="14">Is user in Network Range -</tspan><tspan x="226.79999999999993" dy="14">Bad Countries and IPs</tspan></text><text x="421.19999999999993" y="713.2" fill="black" font-size="14" font-family="sans-serif" text-anchor="middle" transform="rotate(0 421.19999999999993 718.8000000000001)"><tspan x="421.19999999999993" dy="11.200000000000001">Access is denied.</tspan></text><text x="231.0119999999999" y="1047.012" fill="black" font-size="14" font-family="sans-serif" text-anchor="start" transform="rotate(0 231.0119999999999 1047.012)"><tspan x="231.0119999999999" dy="11.200000000000001">NO</tspan></text><text x="320.1119999999999" y="962.588" fill="black" font-size="14" font-family="sans-serif" text-anchor="start" transform="rotate(0 320.1119999999999 973.788)"><tspan x="320.1119999999999" dy="11.200000000000001">YES</tspan></text><text x="226.7999999999999" y="972.4" fill="black" font-size="14" font-family="sans-serif" text-anchor="middle" transform="rotate(0 226.7999999999999 978.0)"><tspan x="226.7999999999999" dy="11.200000000000001">Is the user valid in Okta?</tspan></text><text x="421.1999999999999" y="972.4" fill="black" font-size="14" font-family="sans-serif" text-anchor="middle" transform="rotate(0 421.1999999999999 978.0)"><tspan x="421.1999999999999" dy="11.200000000000001">Access is Allowed.</tspan></text><text x="231.01199999999986" y="1306.212" fill="black" font-size="14" font-family="sans-serif" text-anchor="start" transform="rotate(0 231.01199999999986 1306.212)"><tspan x="231.01199999999986" dy="11.200000000000001">NO</tspan></text><text x="320.11199999999985" y="1221.7879999999998" fill="black" font-size="14" font-family="sans-serif" text-anchor="start" transform="rotate(0 320.11199999999985 1232.9879999999998)"><tspan x="320.11199999999985" dy="11.200000000000001">YES</tspan></text><text x="226.79999999999987" y="1216.1999999999998" fill="black" font-size="14" font-family="sans-serif" text-anchor="middle" transform="rotate(0 226.79999999999987 1237.1999999999998)"><tspan x="226.79999999999987" dy="14">-</tspan><tspan x="226.79999999999987" dy="14">Is user in Network Range -</tspan><tspan x="226.79999999999987" dy="14">Evil-Co Allow List</tspan></text><text x="231.01199999999986" y="1484.412" fill="black" font-size="14" font-family="sans-serif" text-anchor="start" transform="rotate(0 231.01199999999986 1484.412)"><tspan x="231.01199999999986" dy="11.200000000000001">NO</tspan></text><text x="320.11199999999985" y="1399.9879999999998" fill="black" font-size="14" font-family="sans-serif" text-anchor="start" transform="rotate(0 320.11199999999985 1411.1879999999999)"><tspan x="320.11199999999985" dy="11.200000000000001">YES</tspan></text><text x="226.79999999999987" y="1409.7999999999997" fill="black" font-size="14" font-family="sans-serif" text-anchor="middle" transform="rotate(0 226.79999999999987 1415.3999999999999)"><tspan x="226.79999999999987" dy="11.200000000000001">Is the user valid in Okta?</tspan></text><text x="421.1999999999999" y="1231.5999999999997" fill="black" font-size="14" font-family="sans-serif" text-anchor="middle" transform="rotate(0 421.1999999999999 1237.1999999999998)"><tspan x="421.1999999999999" dy="11.200000000000001">Access is Allowed.</tspan></text><text x="421.1999999999999" y="1409.7999999999997" fill="black" font-size="14" font-family="sans-serif" text-anchor="middle" transform="rotate(0 421.1999999999999 1415.3999999999999)"><tspan x="421.1999999999999" dy="11.200000000000001">Access is denied.</tspan></text><text x="231.0119999999998" y="1743.6119999999999" fill="black" font-size="14" font-family="sans-serif" text-anchor="start" transform="rotate(0 231.0119999999998 1743.6119999999999)"><tspan x="231.0119999999998" dy="11.200000000000001">NO</tspan></text><text x="320.11199999999985" y="1659.1879999999996" fill="black" font-size="14" font-family="sans-serif" text-anchor="start" transform="rotate(0 320.11199999999985 1670.3879999999997)"><tspan x="320.11199999999985" dy="11.200000000000001">YES</tspan></text><text x="226.7999999999998" y="1660.6" fill="black" font-size="14" font-family="sans-serif" text-anchor="middle" transform="rotate(0 226.7999999999998 1674.6)"><tspan x="226.7999999999998" dy="14">-</tspan><tspan x="226.7999999999998" dy="14">Is Risk Score HIGH</tspan></text><text x="231.0119999999998" y="1921.812" fill="black" font-size="14" font-family="sans-serif" text-anchor="start" transform="rotate(0 231.0119999999998 1921.812)"><tspan x="231.0119999999998" dy="11.200000000000001">NO</tspan></text><text x="320.11199999999985" y="1837.3879999999997" fill="black" font-size="14" font-family="sans-serif" text-anchor="start" transform="rotate(0 320.11199999999985 1848.5879999999997)"><tspan x="320.11199999999985" dy="11.200000000000001">YES</tspan></text><text x="226.7999999999998" y="1847.1999999999998" fill="black" font-size="14" font-family="sans-serif" text-anchor="middle" transform="rotate(0 226.7999999999998 1852.8)"><tspan x="226.7999999999998" dy="11.200000000000001">Is the user valid in Okta?</tspan></text><text x="231.0119999999998" y="2100.0119999999997" fill="black" font-size="14" font-family="sans-serif" text-anchor="start" transform="rotate(0 231.0119999999998 2100.0119999999997)"><tspan x="231.0119999999998" dy="11.200000000000001">NO</tspan></text><text x="320.11199999999985" y="2015.5879999999997" fill="black" font-size="14" font-family="sans-serif" text-anchor="start" transform="rotate(0 320.11199999999985 2026.7879999999998)"><tspan x="320.11199999999985" dy="11.200000000000001">YES</tspan></text><text x="226.7999999999998" y="2025.3999999999996" fill="black" font-size="14" font-family="sans-serif" text-anchor="middle" transform="rotate(0 226.7999999999998 2030.9999999999998)"><tspan x="226.7999999999998" dy="11.200000000000001">Is the user valid in Okta?</tspan></text><text x="421.1999999999998" y="1668.9999999999998" fill="black" font-size="14" font-family="sans-serif" text-anchor="middle" transform="rotate(0 421.1999999999998 1674.6)"><tspan x="421.1999999999998" dy="11.200000000000001">Access is Allowed.</tspan></text><text x="421.1999999999998" y="1847.1999999999998" fill="black" font-size="14" font-family="sans-serif" text-anchor="middle" transform="rotate(0 421.1999999999998 1852.8)"><tspan x="421.1999999999998" dy="11.200000000000001">Access is Allowed.</tspan></text><text x="421.1999999999998" y="2025.3999999999996" fill="black" font-size="14" font-family="sans-serif" text-anchor="middle" transform="rotate(0 421.1999999999998 2030.9999999999998)"><tspan x="421.1999999999998" dy="11.200000000000001">Access is denied.</tspan></text><text x="231.01199999999972" y="2359.212" fill="black" font-size="14" font-family="sans-serif" text-anchor="start" transform="rotate(0 231.01199999999972 2359.212)"><tspan x="231.01199999999972" dy="11.200000000000001">NO</tspan></text><text x="320.11199999999974" y="2274.7880000000005" fill="black" font-size="14" font-family="sans-serif" text-anchor="start" transform="rotate(0 320.11199999999974 2285.9880000000003)"><tspan x="320.11199999999974" dy="11.200000000000001">YES</tspan></text><text x="226.79999999999973" y="2276.2000000000003" fill="black" font-size="14" font-family="sans-serif" text-anchor="middle" transform="rotate(0 226.79999999999973 2290.2000000000003)"><tspan x="226.79999999999973" dy="14">-</tspan><tspan x="226.79999999999973" dy="14">Is Risk Score HIGH</tspan></text><text x="231.01199999999972" y="2537.412" fill="black" font-size="14" font-family="sans-serif" text-anchor="start" transform="rotate(0 231.01199999999972 2537.412)"><tspan x="231.01199999999972" dy="11.200000000000001">NO</tspan></text><text x="320.11199999999974" y="2452.9880000000003" fill="black" font-size="14" font-family="sans-serif" text-anchor="start" transform="rotate(0 320.11199999999974 2464.188)"><tspan x="320.11199999999974" dy="11.200000000000001">YES</tspan></text><text x="226.79999999999973" y="2462.8" fill="black" font-size="14" font-family="sans-serif" text-anchor="middle" transform="rotate(0 226.79999999999973 2468.4)"><tspan x="226.79999999999973" dy="11.200000000000001">Is the user valid in Okta?</tspan></text><text x="231.01199999999972" y="2715.612" fill="black" font-size="14" font-family="sans-serif" text-anchor="start" transform="rotate(0 231.01199999999972 2715.612)"><tspan x="231.01199999999972" dy="11.200000000000001">NO</tspan></text><text x="320.11199999999974" y="2631.1880000000006" fill="black" font-size="14" font-family="sans-serif" text-anchor="start" transform="rotate(0 320.11199999999974 2642.3880000000004)"><tspan x="320.11199999999974" dy="11.200000000000001">YES</tspan></text><text x="226.79999999999973" y="2641.0" fill="black" font-size="14" font-family="sans-serif" text-anchor="middle" transform="rotate(0 226.79999999999973 2646.6)"><tspan x="226.79999999999973" dy="11.200000000000001">Is the user valid in Okta?</tspan></text><text x="421.19999999999976" y="2284.6000000000004" fill="black" font-size="14" font-family="sans-serif" text-anchor="middle" transform="rotate(0 421.19999999999976 2290.2000000000003)"><tspan x="421.19999999999976" dy="11.200000000000001">Access is Allowed.</tspan></text><text x="421.19999999999976" y="2462.8" fill="black" font-size="14" font-family="sans-serif" text-anchor="middle" transform="rotate(0 421.19999999999976 2468.4)"><tspan x="421.19999999999976" dy="11.200000000000001">Access is Allowed.</tspan></text><text x="421.19999999999976" y="2641.0" fill="black" font-size="14" font-family="sans-serif" text-anchor="middle" transform="rotate(0 421.19999999999976 2646.6)"><tspan x="421.19999999999976" dy="11.200000000000001">Access is denied.</tspan></text><text x="231.01199999999963" y="2974.812" fill="black" font-size="14" font-family="sans-serif" text-anchor="start" transform="rotate(0 231.01199999999963 2974.812)"><tspan x="231.01199999999963" dy="11.200000000000001">NO</tspan></text><text x="320.1119999999996" y="2890.3880000000004" fill="black" font-size="14" font-family="sans-serif" text-anchor="start" transform="rotate(0 320.1119999999996 2901.588)"><tspan x="320.1119999999996" dy="11.200000000000001">YES</tspan></text><text x="226.79999999999964" y="2900.2000000000003" fill="black" font-size="14" font-family="sans-serif" text-anchor="middle" transform="rotate(0 226.79999999999964 2905.8)"><tspan x="226.79999999999964" dy="11.200000000000001">Is the user valid in Okta?</tspan></text><text x="231.01199999999963" y="3153.0119999999997" fill="black" font-size="14" font-family="sans-serif" text-anchor="start" transform="rotate(0 231.01199999999963 3153.0119999999997)"><tspan x="231.01199999999963" dy="11.200000000000001">NO</tspan></text><text x="320.1119999999996" y="3068.588" fill="black" font-size="14" font-family="sans-serif" text-anchor="start" transform="rotate(0 320.1119999999996 3079.788)"><tspan x="320.1119999999996" dy="11.200000000000001">YES</tspan></text><text x="226.79999999999964" y="3078.4" fill="black" font-size="14" font-family="sans-serif" text-anchor="middle" transform="rotate(0 226.79999999999964 3084.0)"><tspan x="226.79999999999964" dy="11.200000000000001">Is the user valid in Okta?</tspan></text><text x="421.19999999999965" y="2900.2000000000003" fill="black" font-size="14" font-family="sans-serif" text-anchor="middle" transform="rotate(0 421.19999999999965 2905.8)"><tspan x="421.19999999999965" dy="11.200000000000001">Access is denied.</tspan></text><text x="421.19999999999965" y="3078.4" fill="black" font-size="14" font-family="sans-serif" text-anchor="middle" transform="rotate(0 421.19999999999965 3084.0)"><tspan x="421.19999999999965" dy="11.200000000000001">Access is Allowed.</tspan></text><text x="-3.5710700663136815e-13" y="3078.4" fill="black" font-size="14" font-family="sans-serif" text-anchor="middle" transform="rotate(0 -3.5710700663136815e-13 3084.0)"><tspan x="-3.5710700663136815e-13" dy="11.200000000000001">Access is denied.</tspan></text></svg>